<svg width="39" height="35" viewBox="0 0 39 35" fill="none" xmlns="http://www.w3.org/2000/svg">
<path fill-rule="evenodd" clip-rule="evenodd" d="M24 0.125C26.7869 0.929202 29.296 2.38874 31.3495 4.32595L29.9346 5.74085C28.2552 4.16808 26.2364 2.9533 24 2.21822V0.125ZM23 6.125C24.5308 6.66607 25.9191 7.50894 27.0933 8.58213L25.6774 9.99806C24.888 9.28958 23.9854 8.70481 23 8.27426V6.125ZM30.7203 14.8546L28.9658 16.6091C28.9884 16.8838 29 17.1616 29 17.4422C29 21.5428 26.5318 25.067 23 26.6101V28.7594C27.6608 27.112 31 22.6671 31 17.4422C31 16.5538 30.9035 15.688 30.7203 14.8546ZM19.5 3.12701V16.1754L10.4699 25.2055L7.39675 22.0601H1C0.447715 22.0601 0 21.6124 0 21.0601V13.0601C0 12.5078 0.447715 12.0601 1 12.0601H8C8.11267 12.0601 8.22098 12.0787 8.32203 12.1131L17.7847 2.42816C18.4113 1.78691 19.5 2.2305 19.5 3.12701ZM19.5 26.0749L15.3622 30.2127L17.7847 32.6921C18.4113 33.3333 19.5 32.8897 19.5 31.9932V26.0749ZM35.4567 10.1182L33.9267 11.6482C34.6199 13.4391 35 15.3859 35 17.4215C35 24.5119 30.3879 30.5251 24 32.6247V34.7179C31.5086 32.5512 37 25.6277 37 17.4215C37 14.8215 36.4487 12.3502 35.4567 10.1182ZM38.7776 4.59007L36.0938 1.90625L6.1875 31.8125L8.87132 34.4963L38.7776 4.59007Z" fill="#6E6E6E"/>
</svg>
