<svg width="61" height="36" viewBox="0 0 61 36" fill="none" xmlns="http://www.w3.org/2000/svg">
<rect x="59" y="34" width="32" height="32" transform="rotate(-180 59 34)" stroke="black" stroke-width="3"/>
<path d="M15.4444 31L3 18.5M3 18.5L15.4444 6M3 18.5L30 18.5" stroke="black" stroke-width="6" stroke-linecap="round" stroke-linejoin="round"/>
<path d="M46.459 23H39.7666V21.8584L43.082 18.2422C43.5605 17.709 43.9001 17.2646 44.1006 16.9092C44.3057 16.5492 44.4082 16.1891 44.4082 15.8291C44.4082 15.3551 44.2738 14.9723 44.0049 14.6807C43.7406 14.389 43.3828 14.2432 42.9316 14.2432C42.3939 14.2432 41.9769 14.4072 41.6807 14.7354C41.3844 15.0635 41.2363 15.5124 41.2363 16.082H39.5752C39.5752 15.4759 39.7119 14.9313 39.9854 14.4482C40.2633 13.9606 40.6576 13.5824 41.168 13.3135C41.6829 13.0446 42.2754 12.9102 42.9453 12.9102C43.9115 12.9102 44.6725 13.154 45.2285 13.6416C45.7891 14.1247 46.0693 14.7946 46.0693 15.6514C46.0693 16.1481 45.9281 16.6699 45.6455 17.2168C45.3675 17.7591 44.9095 18.3766 44.2715 19.0693L41.8379 21.6738H46.459V23Z" fill="black"/>
</svg>
