<svg width="61" height="36" viewBox="0 0 61 36" fill="none" xmlns="http://www.w3.org/2000/svg">
<rect x="59" y="34" width="32" height="32" transform="rotate(-180 59 34)" stroke="black" stroke-width="3"/>
<path d="M15.4444 31L3 18.5M3 18.5L15.4444 6M3 18.5L30 18.5" stroke="black" stroke-width="6" stroke-linecap="round" stroke-linejoin="round"/>
<path d="M41.6875 17.2646H42.6992C43.2096 17.2601 43.613 17.1279 43.9092 16.8682C44.21 16.6084 44.3604 16.2324 44.3604 15.7402C44.3604 15.2663 44.235 14.8994 43.9844 14.6396C43.7383 14.3753 43.36 14.2432 42.8496 14.2432C42.403 14.2432 42.0361 14.373 41.749 14.6328C41.4619 14.888 41.3184 15.223 41.3184 15.6377H39.6572C39.6572 15.1273 39.7917 14.6624 40.0605 14.2432C40.334 13.8239 40.7122 13.498 41.1953 13.2656C41.6829 13.0286 42.2275 12.9102 42.8291 12.9102C43.8226 12.9102 44.6019 13.1608 45.167 13.6621C45.7367 14.1589 46.0215 14.8516 46.0215 15.7402C46.0215 16.1868 45.8779 16.6084 45.5908 17.0049C45.3083 17.3968 44.9414 17.693 44.4902 17.8936C45.0371 18.0804 45.4518 18.3743 45.7344 18.7754C46.0215 19.1764 46.165 19.6549 46.165 20.2109C46.165 21.1042 45.8574 21.8151 45.2422 22.3438C44.6315 22.8724 43.8271 23.1367 42.8291 23.1367C41.8721 23.1367 41.0882 22.8815 40.4775 22.3711C39.8669 21.8607 39.5615 21.1816 39.5615 20.334H41.2227C41.2227 20.7715 41.3685 21.127 41.6602 21.4004C41.9564 21.6738 42.3529 21.8105 42.8496 21.8105C43.3646 21.8105 43.7702 21.6738 44.0664 21.4004C44.3626 21.127 44.5107 20.7305 44.5107 20.2109C44.5107 19.6868 44.3558 19.2835 44.0459 19.001C43.736 18.7184 43.2757 18.5771 42.665 18.5771H41.6875V17.2646Z" fill="black"/>
</svg>
