<svg xmlns="http://www.w3.org/2000/svg" xmlns:xlink="http://www.w3.org/1999/xlink" viewBox="0 0 50.68 49.55"><defs><clipPath id="clip-path" transform="translate(2.73 0)"><circle cx="22.5" cy="22.5" r="22.5" style="fill:none"/></clipPath></defs><g id="Layer_2" data-name="Layer 2"><g id="Layer_1-2" data-name="Layer 1"><circle cx="25.23" cy="22.5" r="22.5" style="fill:#ffe67d"/><g style="clip-path:url(#clip-path)"><circle cx="25.57" cy="16.02" r="12.95" style="fill:#54d0e4"/><ellipse cx="25.68" cy="36.02" rx="15.23" ry="13.52" style="fill:#54d0e4"/><circle cx="11.14" cy="38.41" r="11.14" style="fill:#34b9cd"/><circle cx="39.55" cy="38.41" r="11.14" style="fill:#34b9cd"/><path d="M15,25.23H31.36a3.78,3.78,0,0,1,2.5,1.36c.19.31-3.41-.91-5.68,2.27-1.72,2.41-3.18,4.78-4.77,4.78s-2.73-2.05-5-4.32-4.09-3.87-5.68-2.73S12.05,25.23,15,25.23Z" transform="translate(2.73 0)" style="fill:#171a1b"/><rect x="12.27" y="37.5" width="9.55" height="2.73" rx="1.36" style="fill:#3c666d"/><rect x="29.32" y="37.5" width="9.55" height="2.73" rx="1.36" style="fill:#3c666d"/><polygon points="38.41 15 12.73 15 12.73 15 12.73 15 12.73 15 38.41 15 38.41 15 38.41 15 38.41 15" style="fill:#3c666d"/><polygon points="50.68 38.86 0 38.86 0 38.86 0 38.86 0 38.86 50.68 38.86 50.68 38.86 50.68 38.86 50.68 38.86" style="fill:#3c666d"/><path d="M24.27,32l2-3.45a1,1,0,0,0-.9-1.55h-4a1,1,0,0,0-.9,1.55l2,3.45A1,1,0,0,0,24.27,32Z" transform="translate(2.73 0)" style="fill:#3c666d"/><path d="M24,31.43l1.45-2.51a.76.76,0,0,0-.66-1.13H21.93a.75.75,0,0,0-.66,1.13l1.45,2.51A.76.76,0,0,0,24,31.43Z" transform="translate(2.73 0)" style="fill:#779da1"/><path d="M23.84,31l1-1.79a.54.54,0,0,0-.46-.81H22.34a.54.54,0,0,0-.47.81l1,1.79A.54.54,0,0,0,23.84,31Z" transform="translate(2.73 0)" style="fill:#cdf0f6"/><circle cx="25.68" cy="14.77" r="7.95" style="fill:#ff9159"/><circle cx="25.65" cy="14.74" r="5.45" style="fill:#fefefe"/><path d="M11.59,13A7.41,7.41,0,0,1,15,7.73c1.14-.68-1.12-1.18-2.5,1.59C11.82,10.68,11.36,12.27,11.59,13Z" transform="translate(2.73 0)" style="fill:#34b9cd"/><line x1="25.55" y1="19.91" x2="25.55" y2="9.57" style="fill:none;stroke:#e6e6e6;stroke-linecap:round;stroke-miterlimit:10"/><line x1="20.48" y1="14.74" x2="30.82" y2="14.74" style="fill:none;stroke:#e6e6e6;stroke-linecap:round;stroke-miterlimit:10"/><line x1="21.88" y1="18.44" x2="29.19" y2="11.13" style="fill:none;stroke:#e6e6e6;stroke-linecap:round;stroke-miterlimit:10"/><line x1="21.95" y1="11.21" x2="29.27" y2="18.52" style="fill:none;stroke:#e6e6e6;stroke-linecap:round;stroke-miterlimit:10"/><circle cx="25.68" cy="14.77" r="2.95" style="fill:#0a0a0f"/><path d="M25.23,15.45a1,1,0,0,1-.46,1.14c-.68.46,0-.23,0-.68S25.23,15,25.23,15.45Z" transform="translate(2.73 0)" style="fill:#fefefe"/></g></g></g></svg>