<svg width="26" height="26" viewBox="0 0 26 26" fill="none" xmlns="http://www.w3.org/2000/svg">
<path class="filled" d="M24.8857 3.04802H18.5714V1.68927C18.5714 0.734463 17.68 0 16.5657 0H9.43429C8.32 0 7.42857 0.734463 7.42857 1.68927V3.04802H1.11429C0.482857 3.04802 0 3.52542 0 4.14972C0 4.77401 0.482857 5.25141 1.11429 5.25141H2.48857L3.86286 22.3644C3.9 24.3842 5.53429 26 7.57714 26H18.3857C20.4286 26 22.0629 24.3842 22.1 22.3644L23.5114 5.28814H24.8857C25.5171 5.28814 26 4.81073 26 4.18644C26 3.56215 25.5171 3.04802 24.8857 3.04802ZM9.65714 2.20339H16.3429V3.04802H9.65714V2.20339ZM10.1029 20.0876H10.0657C9.47143 20.0876 8.98857 19.6102 8.95143 19.0226L8.54286 10.0621C8.50571 9.43785 8.98857 8.92373 9.62 8.92373H9.65714C10.2514 8.92373 10.7343 9.40113 10.7714 9.9887L11.18 18.9492C11.18 19.5367 10.7343 20.0508 10.1029 20.0876ZM17.0486 19.0226C17.0114 19.6102 16.5286 20.0876 15.9343 20.0876H15.8971C15.2657 20.0508 14.82 19.5367 14.82 18.9492L15.2286 9.9887C15.2657 9.40113 15.7486 8.92373 16.3429 8.92373H16.38C17.0114 8.96045 17.4571 9.47458 17.4571 10.0621L17.0486 19.0226Z" fill="white"/>
</svg>
