<svg xmlns="http://www.w3.org/2000/svg" viewBox="0 0 218.03 218.04"><g id="a3b3ce8f-8ff7-4c76-b082-19b87ec8ee04" data-name="Pattern"><path d="M218,146.12c-5.74.09-9.4,5.07-11.89,9.65-2.67,4-4.76.1-6,1.6-.88.86-1.61,1.87-2.93,2.22-1,.29-2.13.47-2.83-.39a2.78,2.78,0,0,1-.07-2.9c1.06-2.6,2-5.26,3-7.89.58-1.51-.88-2.45-2.11-1.61-4.12,3.13-6.76,8.74-4.62,13.74A4.67,4.67,0,0,1,191,163c-1.21,5.13-4.79.38-6.08,3.78a2.84,2.84,0,0,1-4.12,1.6c-1.69-.78-4.43-1.06-5.09-3a10.25,10.25,0,0,1,1.75-7.28,8.31,8.31,0,0,0,.82-2.83c.11-.4,0-.68-.49-.29-2.07,1.07-3.06,3.36-5.29,4.22-2.41.57-4.88,1.85-3.67,4.77,2.27,5.7-1.91,4.29-.2,6.13a2.88,2.88,0,0,1,.9,3.32c-.78,1.74,4.6.35,8.24,2.49a1.37,1.37,0,0,1,1,1.45,1.15,1.15,0,0,0,.86,1.23c2.39.92,5.39,3,5,5.95-.11,3.52-1.74,6.61-5.27,7.65-1.45.39-1.11,3.81-3.59,1.28-1.1-1.28-2-2.75-3-4.13-.11-.18-.08-.44-.22-.55-.3-.25-.7-.6-1-.51a1.18,1.18,0,0,0-.55.9c0,2.06,1.74,2.87,3.16,3.91,2.37,2.77,3.78,1.31,5.32,3.32a23.5,23.5,0,0,1,1.94,2.16c1.73,2-1,4.29.39,5.67a8.45,8.45,0,0,1,2.79,3.67c-.24,2.09.44,4.06.64,6.09a2.05,2.05,0,0,1-3.08,1.95c-3.77-1.8-7.57-.15-10.63-3.78a10.93,10.93,0,0,1-2.58-3.63c-.94-1.55-2.09,3.24-5.4.71-2.45-2.06-.06,7.93.17,8.81a3.55,3.55,0,0,1-1,0c-.7-3.22-1.81-6.29-.72-9.52a4.54,4.54,0,0,0,0-.9c-.22.22-.55.42-.61.69a10.13,10.13,0,0,1-2.62,4.19c-1.51,1.76-2.81,3.72-4.22,5.59h-1c1.44-3.21,3.93-5.74,6.22-8.38,1.91-2-.2-4.36-.33-6.64-.15-1.75-.2-3.53-.22-5.29-.13-1.19.53-2.53-.11-3.63-2,1.9,0,5.59-.44,8-1.31,3.94-7.28-.74-8.7-2.81-1.35-1.63.84-3.72-.77-5.25-3-3.13-.84-8.16,2-10.6,1-1.06,1.65-2.73-.39-2.79a5.82,5.82,0,0,0-3.54.75c-2.74,1.64-6.45-2.45-3.32-4.46,2.2-1.81,4.68-3.32,6.66-5.32,3.86-3.92,5.67-9.59,10.24-12.86a3.14,3.14,0,0,0,1.12-2.22c.26-5.6,4.5-9.3,8.79-12.18,1.78-1.15,4.31-1.19,5.54-3.07-2.65-2.61-5.56,2-8.46,1.07-1.29-1.23,1.2-1.82.07-3-2.31-1.52-3.53,3.76-5.83,3.37-.83-.31-2-.77-1.78-1.89a9.49,9.49,0,0,1,4.59-7.26c7-4.11,14.92-12.14,23.61-7.45.85-.15-.27-2.25,2.53-2.17,3.76.29,3.39-2.41,7.73-1.32,10.74,1.38,5.47,1.47,11.52,7.87A12,12,0,0,0,213,132.1c1.67.83,3.25,1.72,5,2.42a8.62,8.62,0,0,1,0,1c-2.12-.84-4.26-1.77-6.35-2.68-2.34-1.09-3.74-3.25-5.08-5.3a4.37,4.37,0,0,0-4.11-3.4q-2.76-.37-5.54-.66c-2.53-.23-2.13,2-5.95,1.53-2.55-.14-.5,3.35,1.16,2.91s5.54,1.31,6.16,2.77c.87,2-1.11,4.46-3,2.87a46.36,46.36,0,0,0-5.37-5c-5.54-5.46-13.29-1.7-18.55,2.16-1.38.79-2.59,1.87-3.91,2.74a9.06,9.06,0,0,0-6.13,6.58c-.18.59-.11,1.34.7,1.42,1.48-.08,2.24-1.85,3.25-2.72a2.32,2.32,0,0,1,3.45,0c1,.88.29,1.79-.06,2.79,2.52-.36,4.69-3.18,7.36-1.76a1.73,1.73,0,0,1,.07,3.34c-1.78.79-3.61,1.54-5.37,2.4-.83.48-1.42,1.44-2.26,1.95a11.93,11.93,0,0,0-3.91,4.14c-1.41,2.06-1.41,4.43-2,6.68a2,2,0,0,1-.72,1.21c-2.24,1-3.43,3-4.75,4.92-3.39,5.72-6.56,9.52-12.22,13.16-.62.44-1.56.77-1.06,1.74,1.78,3.32,4.09-.84,7.78.44,3,.85.95,3.76-.43,5.17a7.84,7.84,0,0,0-2.38,5.91c.06,2.14,2.83,3.51,1.89,5.8a2.31,2.31,0,0,0,.66,2.77c1.5,1.3,3,2.68,5,3,2.23.3,1.16-2.51,1.06-3.78-.57-1.92-.71-5.53,2.17-5.4.25,0,.55.7.57,1.09a30.53,30.53,0,0,0-.15,3.67c.35,2.66-.46,5.61,1.52,7.92a17.42,17.42,0,0,0,2.77,2.44c1,.79,1.95.41,2.79-.42.69-1,2.15-1.54,2.81,0,1.37,3.29,4.51,6,8.24,5.89a9.12,9.12,0,0,1,4.22,1c1.26.44,1.92,0,1.76-1.32-.15-1.63-.48-3.21-.61-4.84A3.79,3.79,0,0,0,182,205.9c-4.32-3.43,1.08-4.45-2.4-7.91-3-3.07-9-3.81-9.69-8.92a2,2,0,0,1,1.5-2c2.51-.44,3.39,5.29,5.75,6.13.65-1.15.22-1.91,1.74-2.18,2.81-.63,4.35-3.27,4.62-5.78.5-5.78-6.44-5-6-7.71,0-.33-.44-.84-.8-1-3.11-1.92-9.58,0-8.35-3.15a2.25,2.25,0,0,0-.81-2.79c-1-.83-1.12-1.32,0-2.44a3,3,0,0,0,.37-3.58,3.91,3.91,0,0,1,2.51-5.89,6.76,6.76,0,0,0,3.89-2.29c1-1,4.75-4.72,5-1.42.07,3.73-3.08,5.09-2.84,9.47a1.44,1.44,0,0,0,1.32,1.56,11.49,11.49,0,0,1,2.82,1.16c2.41,1.49,2.93-.5,4.19-2.17a1.71,1.71,0,0,1,2.31-.57,2,2,0,0,0,2.62-2.66,12.5,12.5,0,0,1,1.49-12.42c1.34-1.62,3.05-4.67,5.56-3.87,1.58.57,1.83,1.74,1.21,3.83-.27,2-3.61,7.9-2.75,9.07,2.06,1.07,3.48-1.44,5-2.39a1.55,1.55,0,0,1,1.39-.09c1.62.94,3.12.64,3.93-1.14,2.34-4.91,6.57-9.58,12.4-9.67a8.62,8.62,0,0,1,0,1.05m-22.75-16.44c-1-.12-2.22-.8-3.18-.55a15,15,0,0,1,3.75,3.5c.2.24.73.48.86.39a1.6,1.6,0,0,0,.64-1c.13-1.3-.15-1.6-2.07-2.33" fill="#88c3bc"/><path d="M0,63.15c2.86-.93,5.73,4.28,6.53,6.59.33,1,1,.82,1.76.62,7.52-.86,11.45-4,13.47-11.34A5,5,0,0,1,25,55.59c1.41-.26,2.5,1,3.38-.86.75-2.26,5.68-4.22,5.65-.57-.32,3.13-1.39,6.23-1.65,9.39a2.72,2.72,0,0,0,.93,1.84c.2.18,1.21-.24,1.58-.64,9.49-11.61-3.66-16.36,3.3-19.51a4.84,4.84,0,0,1,1.14-.18c2.64.26,1.42-2.17,3.14-3.47,1.92-1.46,4.16.36,6.25.37,3.81.28,2.41,6.34,1.62,8.75a15.61,15.61,0,0,0-.42,3.23s.29.13.33.09a16,16,0,0,0,2.25-2.57,7.59,7.59,0,0,1,4.15-3.54c1.49-.55,2.18-3.12,1.19-4.27-2.87-3.31.21-4.72-.9-6.13-2.68-2.17-.79-3.62-2.27-4.09-1.67.09-3.34.42-5,.38-.75-.07-3.65-.59-3.93-1.32-.16-1.5-1.36-1.65-2.42-1.93a6.27,6.27,0,0,1-4.81-7.81c.84-4.79,4.11-4.3,4.55-6.26.13-1.25,1.27-1.94,2.24-1.14a55.25,55.25,0,0,1,4.11,3.86c1.09,1.64,2.55.48,1.41-1a4.08,4.08,0,0,0-2.58-2c-1.25-.47-2.47-1.89-3.93-1.87-1.85.2-2.89-1.06-4.22-2-1.1-.9-2-1.93-1.63-3.52C39.22,4.41,34,5.88,34.09.69c0-.2.13-.38.2-.62A3.06,3.06,0,0,1,35.12,0c-.54,5.21,5.49,3.78,4.4,8.2a2.59,2.59,0,0,0,1.29,3.23c1,.64,1.59,1.85,2.95,1.89,1.85,0,3.41,1.18,5.06,1.83a5.89,5.89,0,0,1,3.47,3.54c.31.68-.42,2-1.14,2.37s-1.74-.18-2.36-.88c-1.1-1.23-2.22-2.46-3.38-3.65a3.43,3.43,0,0,0-1.1-.48c-.2,1.17,0,1.91-1.19,2.39a5.64,5.64,0,0,0-3.56,5.46c-.06,7.35,6.41,4.63,7.08,7.36.13.48.64,1.19,1,1.21,1.69.13,3.39.06,5.08.06,1.24.14,3.43-.65,3.71,1.08-.46,3.86,3.38,2.92,2,5-1.16,1.49-1.18,2.88.09,4.2.7.7,1.3,1.43,1,2.42-.35,1.25-.59,2.81-1.91,3.31-3.51,1.06-4.29,4.74-7.1,6.51-2.71.92-1.75-4.19-1.06-5.49a9,9,0,0,0,.42-5.7c-.15-.85-1-.81-1.56-1-1.12-.31-2.31-.44-3.45-.69a1.81,1.81,0,0,0-2.46,1.32c-.36,1.58-.91,2.85-2.7,2.62-2.18-.11-3.37,1.25-2.09,3.45s2.26,4.61,1.87,7.21a18.23,18.23,0,0,1-3.92,8.79,2.3,2.3,0,0,1-3,.77,3.1,3.1,0,0,1-1.19-3.19c.53-2.77,1-5.56,1.49-8.37.17-1.4-.84-2-2-1.17a28,28,0,0,0-2.38,2.71c-.46.57-.9,1.07-1.78.68-1.76-.77-3.14-.09-3.71,1.8a23.25,23.25,0,0,1-3,6.46c-2.63,4.09-7.26,5.82-11.91,6.13-.84.07-1,.31-.88,1.12.13,1.08,0,2.2.06,3.3,0,.29.11.81.25.84,2.74.59,5,2.24,7.58,3.21,2,.77,4.15,1.07,6.22,1.69,2.7,1.12,4.76,3.43,6.46,5.76a2.75,2.75,0,0,0,2.42,1c2.28-.07,4.57,0,6.83-.29,1.7-.24,2.84-2.46,4.71-2.37,1.44-.09,2.2-.7,1.18-2-1.89-1.8-4.75-.57-7.05-1.06-2.79-.44-2.51-6.5.79-4.79,2.07,2,4.68,3.19,7.1,4.64a7.42,7.42,0,0,0,5.65.92,12.13,12.13,0,0,0,2.55-.44,35,35,0,0,0,10-7.36c2.44-3,6.57-4.55,6.92-8.84.51-1.09-.14-1.71-.77-2.55-1.76,1-1.95,3.17-3.73,4.24s-4.31-.92-2.79-2.57c.08-.08,0-.33,0-.5-1.32.46-2.24,1.73-3.45,2.42a4.19,4.19,0,0,1-3.85.59c-1.3-.44-1.78-1.85-.75-2.73,2.22-1.74,4.74-3.06,6.55-5.29.24-.27.35-.66.64-.84,1.82-1.16,2.57-3,3.1-5a30.42,30.42,0,0,0,.86-3.69c.28-1.2-.36-3.24.33-4.17,2.19-1.39,3.18-3.7,4-5.92,2.11-5.71,5-10.87,9.67-14.88.55-.59,1.39-1.1.66-2a1.92,1.92,0,0,0-3-.44c-2,2-8.19,2.35-6.26-1.87.93-2,2.68-3.64,2.48-6,.73-4.56-2.87-3.64-2.86-7,0-1,.2-2.17-.81-2.83-1.73-1-3.53-2.25-5.58-2.4-3.33,0-.12,4.49.13,6.14.64,1.4-1.17,5.13-2.57,2.9C59.62,8.45,60.6,3.56,57.32.49c0,0,.18-.24.26-.44,1.85.5,2.75,2.49,2.86,4.31.48,2.57.67,5.23,1.61,7.69.19-.44.59-.9.55-1.32-.2-2.06-1.09-4.05-1.48-6.07,0-4.95,6.58-1.29,8.64.2A3.46,3.46,0,0,1,71,8.4a1.89,1.89,0,0,0,.79,1.91c3.68,2.53,2.1,8.1-.24,11.06-.64.9-.93,2.37.59,2.37,3.3.33,3.58-2.23,5.89-2,2.62.6,3.85,3,1.65,4.84-8.42,6.77-7.43,14.06-13.32,20.62-1.77,1.64.43,4.2-1.07,6.83-.69,1.63-1.43,3.23-2.2,4.81-.57.75-1.59,1.38-2,2.22a6.08,6.08,0,0,1-2.6,2.47c-.81.62-4.25,2.42-4.13,3.34,2.94,2.55,5.38-3.31,8.35-2.27.58.29.31.86,0,1.41-.66,1.25.7,2.39,1.62,1.14,1.24-1.18,2.18-4.73,4.2-4,3.78,1.43.27,8.44-2.2,9.8-4.08,3.68-7.75,8-12.74,10.53-2.4,1.23-5.2,1-7.78.84-.93-.11-1.63-.75-1.26.88.16.7-1.23,1.65-2.24,1.58A3.85,3.85,0,0,0,39.52,88c-2.22,1.95-5.27,1.08-8,1.47-5.69.63-6.29-6.87-11.87-7.12-3.74-.39-6.94-2.92-10.48-4-3-.87-5.88-2.75-9.14-2.29a2.55,2.55,0,0,1,0-1c1.91-.7,3.79,0,5.51.79a1.68,1.68,0,0,0,.75.07,4.45,4.45,0,0,0,.22-2C5.24,70.14,4.48,65,0,63.74v-.59M35.61,81c1.4,1.38,3.25.57,4.85,1,0,0,.14-.14.2-.2-1.43-.84-3-1.48-4-2.82-.28-.39-1.19-.25-1.39,0a9.52,9.52,0,0,0,.36,2" fill="#88c3bc"/><path d="M0,137c.31.07.75.11.92.33,1.3,1.8,3.52,2.22,5.15,3.54,2.78,2.2,6.17,3.9,7.84,7.21a.88.88,0,0,0,.73,0c3.84-4.26,9.27-4.63,14.59-5-1.82-4-4.22-2-7.49-1.8a1.37,1.37,0,0,1-1-.75c-1.34-4.08,3.25-9.11,7-10,5.93-2.18,10.53-2.7,16.05,1,3.48,2.12,6.92,5,7,9.41,0,.55.13.66.68.48a11.49,11.49,0,0,1,9.56,1c4.14,2.77,7.54,7.34,6,12.46-.09.44-.73.77-1.12,1.16-.91-.84-1.17-2.42-2.66-2.43a1.44,1.44,0,0,0-1.43.92,6.46,6.46,0,0,1-4.37,3.67c1.6,1,2.69,1.63,2.41,3.78-.17,1.41-.39,2.83-.63,4.24-.11.68,0,1,.76,1.28,5.15,1.66,8.15,6.24,11.13,10.48,2.56,3.83,2.95,8.55,3.23,13,.15,3.5-.86,6.86-1.52,10.25-.54,2.83,0,6.2-1.78,8.63-.13-.22-.4-.44-.4-.66a38.9,38.9,0,0,0-2.17-10c-2.69-7.7-8.48-13.83-10.73-21.72-.62-1.82-.73-3.83-1.36-5.67-.51.19-.76.78-1.21,1-.61.38-1.45,1-1.87.86-1.82-1.1-1.35-4.15-3.4-5.14-2.82-1.9-2.85,5-9.19,7.29-1,.31-5.44,2.1-6,1.43-.07,0,0-.35.06-.5,1-1.94.66-4,.51-6-.15-2.29-1.58-4-2.33-6-.37-.59-1-4-1.56-3.76-7.91,2.77-11.67,3.92-19.1-1.06-.52-.42-2.78-.9-2.75-1.47.68-1.89,1.41-3.76,2.07-5.62a1.17,1.17,0,0,0-.13-1c-2.89-3.33-7-4.65-11.34-4.53a.85.85,0,0,1,0-.59,12,12,0,0,1,11.27,3.56c.95,1,1.21.73,1.67-.24.29-.59.68-1.06.05-1.67-1.19-1.17-2.25-2.46-3.43-3.61A23.88,23.88,0,0,0,3,140.3a8.92,8.92,0,0,1-3-2.49V137m28.13,24.22c1.8-.76,3.64-1.46,5.41-2.29-.13,1-.85,2.19-.73,3.1.87,3.16,3.58,5.65,3.46,9.12-.15,1.73.27,3.57-.2,5.26,4.57-1.06,8.33-3.37,10.48-7.67,2.29-3.75,6.05,0,6.4,3.07.24.91.61.93,1.25.49,3.17-2.5,4.58-6.85,4.44-10.77-.06-2.14-2.31-2.46-3.93-3.06-.16-.06-.4-.22-.4-.31,0-.72.84-.71,1.36-.79a5,5,0,0,0,4.9-3.12,2.63,2.63,0,0,1,2.36-1.73c1.54-.19,2.25.79,3,1.93.09-.11.27-.22.24-.33.52-4.07-1.07-6.74-4-9.47-3-3-7.63-3.31-11.45-1.87-.2.09-.75-.09-.77-.24-.35-2.39-.65-5-2.47-6.77a22.54,22.54,0,0,0-8-5.14,10.85,10.85,0,0,0-6.64-.49c-1,.24-2,1-2.95,1-4.35.2-7.14,3.66-8.55,7.39-.3.73.31,1.76.9,1.65a24.61,24.61,0,0,0,2.84-.57c2.51-.71,5.67,1.89,5.43,4.5,0,.18-.33.49-.44.46a18.25,18.25,0,0,0-7.78.27C16.23,146.21,12.6,151.33,11,157c-.31.84-.13,1.34.83,1.54,5.88,4.3,9.33,4.44,16.31,2.64m41.65,16.59c-3.09-3.62-5.67-8.19-10.61-9.45-.2,0-.55,0-.64.09-1.8,2.09-1.08,4.18-.51,6.59,1.74,7.18,6.1,13.2,9.72,19.48,1.75,3.53,2.51,7.43,3.54,11.16.43-1.71.23-3.54.57-5.29.37-2.36,1.12-4.66,1.27-7,.1-5.35-.43-10.79-3.34-15.54" fill="#88c3bc"/><path d="M218,49.63c-7.26-2.07-13-1.6-16.68,5.87-.2.51-.22.55-.73.22-1.42-.94-2.81-2.15-4.41-2.57C189.77,52,181,54.4,178.89,61.33c-1.29,2.06-2.44,3-2.38,5.69.18,1.78,0,3.85.88,5.45a5.77,5.77,0,0,0,1.43,1.36c1.1.64.79-.66,1.19-1,.79-.75,1.4-1.69,2.13-2.5,1.67-1.94,4.59-1,6,.19.44.35.11.55-.24.84-5.58,4-9.11,11.78-6,18.39.62,1.32,1.25,2.64,1.76,4,.24.64.62.62,1.08.51,1.1-.26,2.2-.51,3.27-.84,6.67-1.43,10.79-7.82,12.42-14,.07-.2.31-.31.48-.46.14.15.36.33.36.48-.19,3.9,8,3.33,10.13,6.27,1.05,1.25,2.79,1.91,3.32,3.64,0,0,.37,0,.39-.06,1.17-2.64,2.84-5.17,2.62-8.22a17.55,17.55,0,0,0-.86-4.24A2.35,2.35,0,0,1,218,73.63c.07,4,0,8,0,12.05-1.12,1.94-1.79,4-3.45,5.54a8.79,8.79,0,0,0-2.13-3.08,12.86,12.86,0,0,0-2.53-2.37,31.15,31.15,0,0,0-4.75-2c-1.45-.53-3.12-.64-4.06-2.11a1.83,1.83,0,0,0-.44.37c-2.11,5.71-5.73,10.77-11.89,12.37-1.48.44-3.06.4-4.46,1.17a1.3,1.3,0,0,1-1.17-.48c-5.13-8.3-4.59-17.74,3.52-23.9,0,0-.07-.37-.16-.39-5.55-2.49-5,5.72-8.08,4.15-3.79-2.3-3.42-7.65-2.33-11.36,2.27-4,4.28-8.56,9-10.11,4.89-1.89,11.07-3.14,15.31.7.53.42.33.11.53-.22,3.28-6.39,10.64-7.86,17.06-5.38a8.7,8.7,0,0,1,0,1.05" fill="#88c3bc"/><path d="M153.81,0a2.78,2.78,0,0,1-.09,1.3,36.66,36.66,0,0,0-3.32,10,29.83,29.83,0,0,0,.16,6,5,5,0,0,0,.9,3.16,13.84,13.84,0,0,1,1.14-2.76c.48-.52,1-.27,1,.46a30.15,30.15,0,0,1-.7,4.85c-2.18,6.13,3.06,15.58,9.14,17.41,1.59.68-.62-3.18-.26-4,.65-4.18,6.62,5.34,8.28,5.52-2.07-5.48-7.55-9.32-9.6-14.86-.32-2.92-3-1.67-3-4.9.19-3.35,1-6.69,1.47-10,.29-2.32,1.5-4.78,4-5.26,1.25-.41,1.51-1,1.18-2.24-.37-1.49-.68-3-1-4.57a.69.69,0,0,1,.4-.07c1.1,2,2,4.07,1.6,6.44S160.71,7,160,12c0,2.34-2.9,10.73-.71,11.74,1.83.44,1.78,2.13,2.46,3.36a43.77,43.77,0,0,0,3.34,5.52c2.36,3.25,5.76,6.16,6.14,10.35.08.66-.22.77-.73.4a32.62,32.62,0,0,1-3-2.35c-1.7-1.42-2.89-3.58-4.83-4.66.07,1.64,2.62,5.58-.71,5.12-6-1.75-9.6-8.13-10.7-13.94a15,15,0,0,1,.46-4.39c.13-.82.35-1.41-.68-1.92-1.19-.57-1.41-1.95-1.58-3.14a25.15,25.15,0,0,1,4.15-18s.11,0,.18,0" fill="#88c3bc"/><path d="M0,41.39c6.5-3.25,12.06.8,12.11-2.07.58-4.72,4.19-7.41,2.88-12.81a24.41,24.41,0,0,1-.26-4.61,44.74,44.74,0,0,0-1.56-9.68c-.82-3.53-1.76-7-2.6-10.55a5.19,5.19,0,0,1,.2-1.6.69.69,0,0,1,.4-.07c1.71,7.82,4.59,15.49,4.65,23.57,0,.37,0,.68.73.48,1.6-.42,5.49.61,6.79,2.48-.28,1.48,1.61,2,1.5,3.34,0,.11.13.25.22.36.9,1.12.88,1.51,0,2.63-.75,1-1.29,2.09-2.11,3C21,37,19.17,38.31,16.79,38.47c-1.38.27-3.81-1-3.73,1.47,0,1.32-2.05,2-3.72,1.6a12.36,12.36,0,0,0-7.25.18,9.3,9.3,0,0,1-2,.26A1.57,1.57,0,0,1,0,41.39M23.19,29c-.27-.38-.77-.75-.73-1.08A1.71,1.71,0,0,0,21.25,26c-1.53-.76-6-2.21-5.18.77,1.53,4.85-3.92,11-1.94,10.57,4.56.64,8.11-1.55,10.31-5.45a1.29,1.29,0,0,0,.09-.64c-1.06-.24-1.19-.88-.86-1.78,0-.07-.24-.24-.48-.48" fill="#88c3bc"/><path d="M218,184.14c-1.52-.48-1.45-1.91-1.76-3.09-.8-5.58-2.65-8.62-6.11-13-.72-.9-3-4.61-3.6-1.93a20.91,20.91,0,0,0-.07,5.64c.49,4.23,3.23,7.52,5,11.21.27,1.5.13,3.06,1,4.42.11.15-.17.55-.24.86-.62,1.72.75,2-.5,3.56-2.28,3.3,1.38,4.3-1.59,8.42-1.82,3.14-3.62,6.28-4,10a33,33,0,0,1-.68,7.73,6.84,6.84,0,0,1-1,0c.17-1.66.83-3.07.42-4.82-.29-4.08,1.32-8.2,3.45-11.62a19.75,19.75,0,0,0,1.73-3.24c1.14-3-1.63-3.27.93-7.27.62-1.08-.59-2.11.42-3.28a.6.6,0,0,0,0-.5c-.81-1.12-.64-2.46-.88-3.72-1.55-3.87-4.52-7.3-5-11.64-.28-2-.72-4,0-6,.27-.7.36-1.53,1.26-1.73a2.47,2.47,0,0,1,2.61,1.12c2.42,3.76,6,6.92,7,11.38.48,1.81.81,3.63,1.23,5.43a1.28,1.28,0,0,0,.4.53c0,.48,0,.94,0,1.49" fill="#88c3bc"/><path d="M10.4,218c-.23-4.12-2.17-7.83-3.63-11.61-.61-1.65-.87-3.45-1.49-5.1-1.85-3,2.66-3.73.24-8.26a10.83,10.83,0,0,1-.46-2.55c-.53-3.17.81-5.67,2.92-7.8a13.62,13.62,0,0,0,3.21-5.61c.9-2.66,1.69-5.36,2.52-8.07a.88.88,0,0,0-.06-.72c-.13-.13-.53-.09-.73,0-3.92,1.67-6.18,5.35-9,8.33-1.87,2.23-2.22,5.18-3,7.87-.11.46-.26.79-.81.33-.21-2.06,1.08-4,1.42-6a9.41,9.41,0,0,1,2.2-3.7A35.76,35.76,0,0,1,12,167.51a2.2,2.2,0,0,1,1.39-.33c1.27.11,1.76,1.14,1.25,2.66-1.12,3.45-2.22,6.9-3.52,10.28-1,2.09-2.91,3.71-4.19,5.63-1.36,1.71-.94,6.58.06,8.53a3.31,3.31,0,0,1-.2,3.34,3.7,3.7,0,0,0-.26,4.22c.55,1,.55,2.33.94,3.45,1.82,4.06,3.53,8.18,3.94,12.7a6.84,6.84,0,0,1-1,0" fill="#88c3bc"/><path d="M205,0a30.2,30.2,0,0,0,.73,6.69A9.83,9.83,0,0,1,206,11a3.81,3.81,0,0,0,.94,3.82c1.45,1.19,1,2.27.46,3.63a10.8,10.8,0,0,0,1.54,11,5.64,5.64,0,0,1,2,4.75c0,.22-.82.63-1.21.57-3.15-.21-7.76-2.69-9.21,1.6-.74,3.23,3.08,1.72,4.86,1.65s3.67-.24,5.49-.2a2.51,2.51,0,0,1,1.74.79c2.08,2.92,2.55,2,5.43,1.15a8.7,8.7,0,0,1,0,1.05c-5.53,2.69-4.89-2-7.65-1.93-2.68.24-5.38.48-8.06.63-5.94.3-2-8.17,2.55-6.57,1.64.21,3.36.85,5,.53a5.42,5.42,0,0,0-.35-1.6c-4.24-4.95-5-8.41-2.82-14.6.16-2.25-2.5-2.71-1.71-6.31S203,3.8,204.4.07A1.71,1.71,0,0,1,205,0" fill="#88c3bc"/><path d="M48.64,218c-2.93-3.92-5.72-4.65-10.42-4-4.49-.8-5.17-.54-3.27,3.93a6.91,6.91,0,0,1-1,0c-1.14-2.13-2.1-6.24,1.7-5.48a12.18,12.18,0,0,0,5.2.22c2.66-.39,4.8.86,6.77,2.42.86.81,2,1.49,2.09,2.79a6.84,6.84,0,0,1-1,0" fill="#88c3bc"/><path d="M0,61.17c.77-1.63,3.4-2,4.53-2.7C4,55.74,1.74,54,.07,51.87A1.57,1.57,0,0,1,0,51.28a2.29,2.29,0,0,1,1.14.33c1.51,1.91,3.5,3.56,4.51,5.83,1.1,3.26-3.57,2.31-4.88,4.28-.09.11-.44.05-.7.05a1.65,1.65,0,0,1-.07-.6" fill="#88c3bc"/><path d="M50.62,218c1-3.78,5.23-2.69,7,0a7.22,7.22,0,0,1-1.47,0c-.86-1.46-4-2-4.24,0H50.62" fill="#88c3bc"/><path d="M218,62.38A11.74,11.74,0,0,1,215,63.59c-.85-1.21,2.26-2.75,3-3.58.1.38-.08.91,0,1.32v1.05" fill="#88c3bc"/><path d="M51.39,0A1.36,1.36,0,0,1,49,.69,2.92,2.92,0,0,1,51.39,0" fill="#88c3bc"/><path d="M0,82.49a12.06,12.06,0,0,1,.07,1.25A7.2,7.2,0,0,1,0,82.49" fill="#88c3bc"/><path d="M133,124.63c-6-1.26-13.6,1.9-17.71-4.16.25,2.81.94,5.59,1,8.42a135.68,135.68,0,0,1-1.5,14.09c-.16,3-.17,5.92-1.14,8.77,0,.22-.31.37-.48.57-.22-.2-.51-.35-.62-.59q-1.29-3.1-2.48-6.22a149.05,149.05,0,0,1-5.39-16.23c-.44-3.6-.54-7.31-.92-10.94,0-.18-.2-.35-.31-.53-1,1.57-1.37,3.52-3.23,4.33-2.37.9-5.93,2.09-7.19,4.46-1.74,3.43-6.69,1.33-11.49,4.73-2,1.55-6.1,2-6.6,4.64-.08.55-.41.63-.9.15a5.89,5.89,0,0,1-1.43-3.8,30.74,30.74,0,0,1-.22-12.16c.89-3.93,4.78-3.82,5.32-7.34a9.34,9.34,0,0,1,6.82-6c1.58-.22,2.15-1.58,3-2.64,2.38-3.49,6.19-1.78,9.23-3.47-7.15-3.34-15.2-5.57-20.71-11.6a11.65,11.65,0,0,0-4.13-2.77,2.3,2.3,0,0,1-1-1.34c1.18-2.38,5.73-2.13,8-1.67,8,1.3,14.74,6.12,21.18,10.63-1.58-4.63-3.81-8.72-1.2-13.53a5.39,5.39,0,0,0,.52-2c.13-4.73,2.77-8.89,4-13.41a9.85,9.85,0,0,1,3.15-4.2c2.21-2,4.11-4.3,6.74-5.73a1.27,1.27,0,0,1,2,.79,96.71,96.71,0,0,1,4,13.07c.55,2.31.92,4.66,1.52,7a7.21,7.21,0,0,1,0,4.29c-.24,1,.32,2.26.39,3.31.16,3.13.05,6.3.31,9.43,3.76-2.43,6.57-6.33,11.19-7.18,6.69-1.81,15.43-7.54,21.76-2.29.59.62.64,1.08-.24,1.45-4.45,2.3-10,3.32-13.34,7.25-2.58,3.13-5.17,6.18-9.13,7.63,0,0,0,.37,0,.4,2.11.9,3.47,2.68,5.1,4.15,4,3.17,8.31,6.44,9.14,11.85a16.15,16.15,0,0,0,2.53,7.07,6,6,0,0,1,.53,3.52c-.09,1.1-1,1.34-2.09.68a52.8,52.8,0,0,0-4.77-2.77c-4.39-2.26-5.9,2.12-9.17-.08m-59.78-2.31a23,23,0,0,0,.44,10c.24.76.15,1.76.66,2.42a7.9,7.9,0,0,1,1.41-1.52,42.08,42.08,0,0,1,10.85-5.06c1.73-.4,3.77-.15,5.08-1.6,3.5-5.6,7.77-3.56,10-7.52,1.42-3.41,5.74-9.73,9.63-5.07.7,1,1.6,1.89,2.39,2.85,1.3,1.43,2.3,3.33,3.76,4.57a11.57,11.57,0,0,0,5.67,1.92c3.76.21,7.73-.64,11.32.79a2,2,0,0,0,1.6-.22c4-2.09,8.44.21,11.63,2.72,0,.05.31-.06.29-.08a12.93,12.93,0,0,0-.47-2.77c-.43-1.15-1.27-2.14-1.67-3.26-1.07-3.62-1.08-7.84-4.08-10.5-2.71-2.66-5.61-5.12-8.47-7.63a6.37,6.37,0,0,0-2.61-1.63c-5.39-1.36-8.51-.33-13.65.73,4.22-9.36,3.71-6.77,3-17.14-.37-2.59-.12-5.18-.28-7.76-.9-2.88-1.27-5.91-2-8.84-.55-1.89-2.66-11.5-4.35-11.63-2.35,1.35-3.92,3.59-5.91,5.32-3.62,2.82-4.22,7.62-5.9,11.63a35.43,35.43,0,0,0-1.09,4c-.36,1.5,0,3.15-1,4.53A3.88,3.88,0,0,0,98.91,83a8.86,8.86,0,0,0,.22,5.1c1.55,4.1,3.14,8.25,4.61,12.37,1.11,2.34-4.07-.2-6.59,1.26-3.73,2.17-6.42-.4-9,3.38-2.55,4.13-4.62,1.42-8.17,5.85a6.86,6.86,0,0,0-1.23,2.33c-1,4.39-5.29,3.35-5.52,9m32-6.93c-.33.55-1,1.21-.9,1.65,1,4.11.73,8.38,1.65,12.49A148.6,148.6,0,0,0,113,150.34c.56-1.59.36-3.4.64-5.08.22-2.08.46-4.19.66-6.3.4-4.58,1.3-9.15.44-13.72-.43-3.1,0-6.67-2.88-8.7a6,6,0,0,1-1.47-1.92,2.24,2.24,0,0,0-1.91-1.18c-1.52-.2-2.27,1-3.3,2M125.61,91c-3.91,2.73-4.8,4.46-6.7,8.7,0,0,.15.31.19.29,2.16-.38,4.16-1.06,6.4-.93s4.7.75,6.95-.77A26.59,26.59,0,0,0,138,93.77c1.89-2.2,3.67-4.55,6.52-5.65,2.89-1.47,5.93-2.58,8.88-3.89-.19-.24-.37-.62-.61-.68-3.34-1.55-6.81-1.07-10.2,0-4,1.19-7.91,2.62-11.89,3.91-2,.66-3.43,2.14-5.1,3.59M72,84.84c.11.18.18.46.31.51A14.22,14.22,0,0,1,77.41,89a26.29,26.29,0,0,0,7.91,5.52c3,1.54,6.16,2.84,9.28,4.18,2,.88,4,2.06,6.37,1.6a3,3,0,0,0,1.63.13c-.84-5.06-3.28-5.72-7.15-8.31C88.53,87.74,80.55,81.89,72,84.84" fill="#88c3bc"/></g></svg>