<svg width="61" height="36" viewBox="0 0 61 36" fill="none" xmlns="http://www.w3.org/2000/svg">
<rect x="2" y="2" width="32" height="32" stroke="black" stroke-width="3"/>
<path d="M45.5556 6L58 18.5M58 18.5L45.5556 31M58 18.5L31 18.5" stroke="black" stroke-width="6" stroke-linecap="round" stroke-linejoin="round"/>
<path d="M15.6867 17.2646H16.6984C17.2088 17.2601 17.6122 17.1279 17.9084 16.8682C18.2092 16.6084 18.3596 16.2324 18.3596 15.7402C18.3596 15.2663 18.2342 14.8994 17.9836 14.6396C17.7375 14.3753 17.3592 14.2432 16.8488 14.2432C16.4022 14.2432 16.0353 14.373 15.7482 14.6328C15.4611 14.888 15.3176 15.223 15.3176 15.6377H13.6564C13.6564 15.1273 13.7909 14.6624 14.0598 14.2432C14.3332 13.8239 14.7114 13.498 15.1945 13.2656C15.6821 13.0286 16.2267 12.9102 16.8283 12.9102C17.8218 12.9102 18.6011 13.1608 19.1662 13.6621C19.7359 14.1589 20.0207 14.8516 20.0207 15.7402C20.0207 16.1868 19.8771 16.6084 19.59 17.0049C19.3075 17.3968 18.9406 17.693 18.4894 17.8936C19.0363 18.0804 19.451 18.3743 19.7336 18.7754C20.0207 19.1764 20.1642 19.6549 20.1642 20.2109C20.1642 21.1042 19.8566 21.8151 19.2414 22.3438C18.6307 22.8724 17.8264 23.1367 16.8283 23.1367C15.8713 23.1367 15.0874 22.8815 14.4767 22.3711C13.8661 21.8607 13.5607 21.1816 13.5607 20.334H15.2219C15.2219 20.7715 15.3677 21.127 15.6594 21.4004C15.9556 21.6738 16.3521 21.8105 16.8488 21.8105C17.3638 21.8105 17.7694 21.6738 18.0656 21.4004C18.3618 21.127 18.5099 20.7305 18.5099 20.2109C18.5099 19.6868 18.355 19.2835 18.0451 19.001C17.7352 18.7184 17.2749 18.5771 16.6642 18.5771H15.6867V17.2646Z" fill="black"/>
</svg>
