<svg width="53" height="59" viewBox="0 0 53 59" fill="none" xmlns="http://www.w3.org/2000/svg">
<circle cx="25" cy="34" r="25" transform="rotate(90 25 34)" fill="black" fill-opacity="0.1"/>
<path class="filled" d="M50 34C50 30.717 49.3534 27.4661 48.097 24.4329C46.8406 21.3998 44.9991 18.6438 42.6777 16.3223C40.3562 14.0009 37.6002 12.1594 34.5671 10.903C31.5339 9.64664 28.283 9 25 9L25 34L50 34Z" fill="black" fill-opacity="0.3"/>
<circle cx="25" cy="34" r="4" transform="rotate(-180 25 34)" fill="black"/>
<path d="M50 34C50 27.3696 47.3661 21.0107 42.6777 16.3223C37.9893 11.6339 31.6304 9 25 9" stroke="black" stroke-width="6" stroke-linecap="round" stroke-linejoin="round"/>
<path d="M25.9365 3.00009L21.0024 9.57514L25.9316 16.1387" stroke="black" stroke-width="6" stroke-linecap="round" stroke-linejoin="round"/>
</svg>
