<svg width="70" height="70" viewBox="0 0 70 70" fill="none" xmlns="http://www.w3.org/2000/svg">
<circle cx="34.6485" cy="34.6483" r="24.7487" transform="rotate(90 34.6485 34.6483)" fill="#D0C563"/>
<path d="M59.7487 35C59.7487 28.4362 57.1413 22.1413 52.5 17.5C47.8587 12.8587 41.5638 10.2513 35 10.2513C28.4362 10.2513 22.1413 12.8587 17.5 17.5C12.8587 22.1413 10.2513 28.4362 10.2513 35L35 35L59.7487 35Z" fill="#928A45"/>
<path d="M60.1007 35.2168C60.1007 28.5289 57.444 22.1149 52.7149 17.3858C47.9858 12.6568 41.5718 10 34.8839 10C28.196 10 21.782 12.6568 17.0529 17.3858C12.3239 22.1149 9.66712 28.5289 9.66711 35.2168" stroke="black" stroke-width="6" stroke-linecap="round" stroke-linejoin="round"/>
<path d="M3.08274 34.8081L9.65778 39.7423L16.2213 34.813" stroke="black" stroke-width="6" stroke-linecap="round" stroke-linejoin="round"/>
<circle cx="35.1433" cy="35.1432" r="3.46482" transform="rotate(-180 35.1433 35.1432)" fill="black"/>
</svg>
