<svg width="70" height="70" viewBox="0 0 70 70" fill="none" xmlns="http://www.w3.org/2000/svg">
<circle cx="34.6483" cy="36.3518" r="24.7487" fill="#D0C563"/>
<path d="M59.7487 36C59.7487 32.75 59.1086 29.5317 57.8649 26.5291C56.6211 23.5264 54.7981 20.7981 52.5 18.5C50.2019 16.2019 47.4736 14.3789 44.4709 13.1351C41.4683 11.8914 38.25 11.2513 35 11.2513L35 36L59.7487 36Z" fill="#928A45"/>
<path d="M59.865 35.1263C59.865 31.8148 59.2127 28.5357 57.9455 25.4763C56.6782 22.4169 54.8208 19.637 52.4792 17.2954C50.1376 14.9538 47.3577 13.0963 44.2982 11.8291C41.2388 10.5618 37.9597 9.90955 34.6482 9.90955" stroke="black" stroke-width="6" stroke-linecap="round" stroke-linejoin="round"/>
<path d="M37.3783 3.95835L32.4441 10.5334L37.3734 17.0969" stroke="black" stroke-width="6" stroke-linecap="round" stroke-linejoin="round"/>
<circle cx="35.1432" cy="35.8568" r="3.46482" transform="rotate(90 35.1432 35.8568)" fill="black"/>
</svg>
