<svg width="23" height="26" viewBox="0 0 23 26" fill="none" xmlns="http://www.w3.org/2000/svg">
<path d="M13.232 3.23233L16.768 6.76833L13.232 3.23233ZM14.732 1.73233C15.2009 1.26343 15.8369 1 16.5 1C17.1631 1 17.7991 1.26343 18.268 1.73233C18.7369 2.20123 19.0003 2.8372 19.0003 3.50033C19.0003 4.16346 18.7369 4.79943 18.268 5.26833L4.5 19.0363H1V15.4643L14.732 1.73233V1.73233Z" stroke="#1E1E1E" stroke-width="2" stroke-linecap="round" stroke-linejoin="round"/>
<path d="M21.9998 16.7359C19.229 16.2022 13.4776 15.4762 12.6382 16.8418C11.589 18.5487 14.8741 20.136 12.4395 21.5761C10.4918 22.7282 4.0016 21.8599 0.999968 21.2817" stroke="#1E1E1E" stroke-linecap="round" stroke-linejoin="round"/>
</svg>
