<svg width="82" height="82" viewBox="0 0 82 82" fill="none" xmlns="http://www.w3.org/2000/svg">
<g filter="url(#filter0_d)">
<circle cx="41" cy="40" r="40" fill="#30444E"/>
</g>
<g filter="url(#filter1_d)">
<path fill-rule="evenodd" clip-rule="evenodd" d="M63.6969 62.6971C57.6772 68.7168 49.5128 72.0986 40.9996 72.0986C32.4865 72.0986 24.3221 68.7168 18.3024 62.6971C12.2827 56.6774 8.90088 48.5129 8.90088 39.9998C8.90088 31.4867 12.2827 23.3222 18.3024 17.3026C24.3221 11.2829 32.4865 7.90105 40.9996 7.90105C49.5128 7.90105 57.6772 11.2829 63.6969 17.3026C69.7166 23.3222 73.0984 31.4867 73.0984 39.9998C73.0984 48.5129 69.7166 56.6774 63.6969 62.6971ZM54.1665 45.0354C57.4998 43.111 57.4998 38.2997 54.1665 36.3752L38.4998 27.33C35.1665 25.4055 30.9998 27.8112 30.9998 31.6602V49.7505C30.9998 53.5995 35.1665 56.0051 38.4998 54.0806L54.1665 45.0354Z" fill="#F97953"/>
</g>
<defs>
<filter id="filter0_d" x="0" y="0" width="82" height="82" filterUnits="userSpaceOnUse" color-interpolation-filters="sRGB">
<feFlood flood-opacity="0" result="BackgroundImageFix"/>
<feColorMatrix in="SourceAlpha" type="matrix" values="0 0 0 0 0 0 0 0 0 0 0 0 0 0 0 0 0 0 127 0"/>
<feOffset dy="1"/>
<feGaussianBlur stdDeviation="0.5"/>
<feColorMatrix type="matrix" values="0 0 0 0 0 0 0 0 0 0 0 0 0 0 0 0 0 0 0.25 0"/>
<feBlend mode="normal" in2="BackgroundImageFix" result="effect1_dropShadow"/>
<feBlend mode="normal" in="SourceGraphic" in2="effect1_dropShadow" result="shape"/>
</filter>
<filter id="filter1_d" x="7.90088" y="7.90105" width="66.1975" height="66.1975" filterUnits="userSpaceOnUse" color-interpolation-filters="sRGB">
<feFlood flood-opacity="0" result="BackgroundImageFix"/>
<feColorMatrix in="SourceAlpha" type="matrix" values="0 0 0 0 0 0 0 0 0 0 0 0 0 0 0 0 0 0 127 0"/>
<feOffset dy="1"/>
<feGaussianBlur stdDeviation="0.5"/>
<feColorMatrix type="matrix" values="0 0 0 0 0 0 0 0 0 0 0 0 0 0 0 0 0 0 0.25 0"/>
<feBlend mode="normal" in2="BackgroundImageFix" result="effect1_dropShadow"/>
<feBlend mode="normal" in="SourceGraphic" in2="effect1_dropShadow" result="shape"/>
</filter>
</defs>
</svg>
