<svg width="26" height="32" viewBox="0 0 26 32" fill="none" xmlns="http://www.w3.org/2000/svg">
<g clip-path="url(#clip0)">
<path d="M13.8667 14.9384C15.1569 14.9384 16.2029 11.849 16.2029 8.03792C16.2029 4.2269 15.1569 1.13745 13.8667 1.13745C12.5764 1.13745 11.5304 4.2269 11.5304 8.03792C11.5304 11.849 12.5764 14.9384 13.8667 14.9384Z" fill="white" stroke="#22262A" stroke-width="2" stroke-miterlimit="10"/>
<path d="M17.1826 13.1185C19.7449 14.4834 21.1768 16.2275 22.1565 18.654C23.0609 20.8531 23.513 23.5071 24.1913 26.7678C25.0203 30.8626 18.0116 33.1375 10.7014 29.0427C3.08985 24.8721 3.31594 19.7157 5.27536 15.9242C7.23478 12.1327 12.2841 10.5403 17.1826 13.1185Z" fill="white" stroke="#22262A" stroke-width="2" stroke-miterlimit="10"/>
<path d="M11.0783 13.8767C9.57101 15.0142 6.85797 12.436 3.54203 9.55447C0.828986 7.27959 4.76837e-07 2.27485 1.50725 1.13741C3.01449 -3.36766e-05 7.38551 1.51655 9.04348 5.45968C10.7768 9.47864 12.5855 12.7393 11.0783 13.8767Z" fill="white" stroke="#22262A" stroke-width="2" stroke-miterlimit="10"/>
<path d="M4.06956 5.00464C4.06956 5.00464 7.15942 5.83876 8.96812 11.3743L4.06956 5.00464Z" fill="white"/>
<path d="M3.91884 5.38384H3.9942H4.06957C4.22029 5.45967 3.9942 5.30801 4.14493 5.38384C4.44638 5.5355 4.67246 5.68716 4.97391 5.83882C5.35072 6.21796 5.65217 6.52128 6.02899 6.90043C6.48116 7.43123 6.85797 7.96204 7.23478 8.56867C7.76232 9.47863 8.21449 10.4644 8.51594 11.526C8.66667 12.0568 9.57102 11.8293 9.42029 11.2985C8.5913 8.79616 7.15942 5.99047 4.67246 4.85303C4.52174 4.62555 4.37101 4.54972 4.22029 4.54972C3.61739 4.39806 3.3913 5.23218 3.91884 5.38384Z" fill="#22262A"/>
<path d="M24.7578 28.5106C25.0478 28.4821 25.2665 28.2901 25.2463 28.0817C25.2261 27.8733 24.9746 27.7274 24.6846 27.7559C24.3947 27.7843 24.176 27.9763 24.1962 28.1847C24.2163 28.3931 24.4678 28.539 24.7578 28.5106Z" fill="#22262A" stroke="#22262A" stroke-width="2" stroke-miterlimit="10"/>
<path d="M18.5391 20.7015C18.4638 21.4598 17.7101 21.3839 16.5043 21.2323C15.2986 21.0806 14.8464 19.7157 14.9217 18.9574C14.9971 18.1991 15.3739 18.1991 16.8812 18.4266C18.3884 18.5782 18.6145 19.9432 18.5391 20.7015Z" stroke="#22262A" stroke-miterlimit="10"/>
<path d="M23.0609 29.5735C22.9101 30.1801 21.9304 30.7867 20.6493 30.7867C19.4435 30.7867 18.7652 28.6635 18.9159 27.9811C19.0667 27.2986 20.0464 27.9052 21.2522 28.6635C22.5333 29.5735 23.1362 28.9668 23.0609 29.5735Z" fill="#22262A"/>
<path d="M18.5049 20.6484C18.711 20.237 18.4562 19.6896 17.9359 19.4257C17.4155 19.1618 16.8267 19.2814 16.6206 19.6928C16.4145 20.1041 16.6693 20.6516 17.1896 20.9155C17.71 21.1794 18.2989 21.0598 18.5049 20.6484Z" fill="#22262A"/>
</g>
<defs>
<clipPath id="clip0">
<rect width="26" height="32" fill="white"/>
</clipPath>
</defs>
</svg>
