<svg width="81" height="54" viewBox="0 0 81 54" fill="none" xmlns="http://www.w3.org/2000/svg">
<g clip-path="url(#clip0)">
<path d="M5.78225 41.128C8.9757 41.128 11.5645 38.635 11.5645 35.5596C11.5645 32.4843 8.9757 29.9912 5.78225 29.9912C2.5888 29.9912 0 32.4843 0 35.5596C0 38.635 2.5888 41.128 5.78225 41.128Z" fill="white" stroke="black" stroke-width="2" stroke-miterlimit="10"/>
<path d="M64.3062 31.3462C76.2146 37.605 39.7729 49.461 35.9979 51.2286C20.2766 58.5874 8.58936 44.2825 8.58936 31.7301C8.58936 19.1776 22.4625 10.0436 37.3688 18.161C55.0458 27.7851 53.3371 25.5821 64.3062 31.3462Z" fill="white" stroke="black" stroke-width="2" stroke-miterlimit="10"/>
<path d="M37.093 43.5557C39.6713 47.6083 57.212 49.1711 58.6314 50.6717C63.2548 55.5634 39.8592 53.6183 31.0093 53.6183C19.4403 53.6183 8.5105 49.203 8.5105 40.5333C8.5105 31.8635 16.8892 21.8434 29.4566 24.837C34.9737 26.1495 32.3242 36.0603 37.093 43.5557Z" fill="white" stroke="black" stroke-width="2" stroke-miterlimit="10"/>
<path d="M59.8012 25.9368C61.4982 25.2103 60.522 19.1097 57.6207 12.3107C54.7194 5.51167 50.9916 0.588918 49.2946 1.3154C47.5975 2.04189 48.5738 8.14251 51.4751 14.9415C54.3764 21.7405 58.1041 26.6633 59.8012 25.9368Z" fill="white" stroke="black" stroke-width="2" stroke-miterlimit="10"/>
<path d="M56.9503 24.4061C58.3494 22.8568 54.4679 17.0569 48.2808 11.4515C42.0937 5.84616 35.9438 2.55803 34.5447 4.10727C33.1456 5.65652 37.027 11.4565 43.2142 17.0618C49.4013 22.6672 55.5512 25.9553 56.9503 24.4061Z" fill="white" stroke="black" stroke-width="2" stroke-miterlimit="10"/>
<path d="M79.2548 31.1808C83.1496 36.4169 73.1802 43.0034 65.6877 43.0034C58.1951 43.0034 52.1205 37.7111 52.1205 31.1808C52.1205 24.6504 58.286 18.1929 65.6877 19.3581C67.6646 19.6692 72.3198 21.8571 79.2548 31.1808Z" fill="white" stroke="black" stroke-width="2" stroke-miterlimit="10"/>
<path d="M68.2235 32.1473C69.3689 32.1473 70.2974 31.2173 70.2974 30.0701C70.2974 28.9229 69.3689 27.993 68.2235 27.993C67.0782 27.993 66.1497 28.9229 66.1497 30.0701C66.1497 31.2173 67.0782 32.1473 68.2235 32.1473Z" fill="#231F20" stroke="black" stroke-width="2" stroke-miterlimit="10"/>
<path d="M79.9624 34.845C80.5355 34.845 81.0001 34.3797 81.0001 33.8057C81.0001 33.2316 80.5355 32.7663 79.9624 32.7663C79.3893 32.7663 78.9247 33.2316 78.9247 33.8057C78.9247 34.3797 79.3893 34.845 79.9624 34.845Z" fill="#231F20" stroke="black" stroke-width="2" stroke-miterlimit="10"/>
</g>
<defs>
<clipPath id="clip0">
<rect width="81" height="54" fill="white"/>
</clipPath>
</defs>
</svg>
