<svg width="24" height="27" viewBox="0 0 24 27" fill="none" xmlns="http://www.w3.org/2000/svg">
<path fill-rule="evenodd" clip-rule="evenodd" d="M2.57143 1C2.9882 1 3.3879 1.16462 3.6826 1.45765C3.9773 1.75067 4.14286 2.1481 4.14286 2.5625V5.84531C5.45035 4.51917 7.07582 3.54579 8.86617 3.01685C10.6565 2.48791 12.5528 2.42081 14.3764 2.82188C16.2001 3.22296 17.891 4.079 19.29 5.30937C20.689 6.53975 21.75 8.10397 22.373 9.85469C22.4486 10.0496 22.4841 10.2576 22.4774 10.4665C22.4707 10.6753 22.422 10.8806 22.3341 11.0704C22.2462 11.2602 22.1209 11.4305 21.9657 11.5713C21.8105 11.712 21.6284 11.8204 21.4303 11.89C21.2322 11.9596 21.022 11.989 20.8123 11.9765C20.6026 11.9639 20.3975 11.9096 20.2092 11.8169C20.0209 11.7242 19.8533 11.5948 19.7161 11.4365C19.579 11.2782 19.4752 11.0942 19.4109 10.8953C18.9365 9.56221 18.1073 8.38205 17.0116 7.48059C15.9159 6.57912 14.5947 5.99013 13.1889 5.77638C11.7831 5.56262 10.3453 5.73211 9.02868 6.26678C7.7121 6.80146 6.56607 7.68128 5.71271 8.8125H10.4286C10.8453 8.8125 11.245 8.97712 11.5397 9.27015C11.8344 9.56317 12 9.9606 12 10.375C12 10.7894 11.8344 11.1868 11.5397 11.4799C11.245 11.7729 10.8453 11.9375 10.4286 11.9375H2.57143C2.15466 11.9375 1.75496 11.7729 1.46026 11.4799C1.16556 11.1868 1 10.7894 1 10.375V2.5625C1 2.1481 1.16556 1.75067 1.46026 1.45765C1.75496 1.16462 2.15466 1 2.57143 1ZM2.584 15.1516C2.7786 15.0832 2.98483 15.0537 3.19092 15.0646C3.39701 15.0755 3.59892 15.1267 3.78512 15.2152C3.97132 15.3037 4.13816 15.4278 4.27611 15.5804C4.41407 15.733 4.52044 15.9112 4.58914 16.1047C5.0635 17.4378 5.89272 18.6179 6.98843 19.5194C8.08414 20.4209 9.4053 21.0099 10.8111 21.2236C12.2169 21.4374 13.6547 21.2679 14.9713 20.7332C16.2879 20.1985 17.4339 19.3187 18.2873 18.1875H13.5714C13.1547 18.1875 12.755 18.0229 12.4603 17.7299C12.1656 17.4368 12 17.0394 12 16.625C12 16.2106 12.1656 15.8132 12.4603 15.5201C12.755 15.2271 13.1547 15.0625 13.5714 15.0625H21.4286C21.8453 15.0625 22.245 15.2271 22.5397 15.5201C22.8344 15.8132 23 16.2106 23 16.625V24.4375C23 24.8519 22.8344 25.2493 22.5397 25.5424C22.245 25.8354 21.8453 26 21.4286 26C21.0118 26 20.6121 25.8354 20.3174 25.5424C20.0227 25.2493 19.8571 24.8519 19.8571 24.4375V21.1547C18.5497 22.4808 16.9242 23.4542 15.1338 23.9832C13.3435 24.5121 11.4472 24.5792 9.62356 24.1781C7.79993 23.777 6.10898 22.921 4.71 21.6906C3.31102 20.4603 2.25004 18.896 1.627 17.1453C1.55827 16.9518 1.52854 16.7468 1.53951 16.5418C1.55049 16.3369 1.60195 16.1362 1.69097 15.951C1.77998 15.7659 1.9048 15.6 2.0583 15.4628C2.21179 15.3256 2.38939 15.2199 2.584 15.1516Z" fill="#1E1E1E" stroke="#4C9990"/>
</svg>
