<svg width="25" height="24" viewBox="0 0 25 24" fill="none" xmlns="http://www.w3.org/2000/svg">
<path class="filled" fill-rule="evenodd" clip-rule="evenodd" d="M14.7068 0.292786C14.8943 0.480314 14.9996 0.734622 14.9996 0.999786C14.9996 1.26495 14.8943 1.51926 14.7068 1.70679L12.4138 3.99979H14.9998C16.8563 3.99979 18.6368 4.73728 19.9495 6.05004C21.2623 7.36279 21.9998 9.14327 21.9998 10.9998V12.9998C21.9998 13.265 21.8944 13.5194 21.7069 13.7069C21.5194 13.8944 21.265 13.9998 20.9998 13.9998C20.7346 13.9998 20.4802 13.8944 20.2927 13.7069C20.1051 13.5194 19.9998 13.265 19.9998 12.9998V10.9998C19.9998 9.6737 19.473 8.40193 18.5353 7.46425C17.5976 6.52657 16.3259 5.99979 14.9998 5.99979H12.4138L14.7068 8.29279C14.8023 8.38503 14.8785 8.49538 14.9309 8.61738C14.9833 8.73939 15.0109 8.87061 15.012 9.00339C15.0132 9.13616 14.9879 9.26784 14.9376 9.39074C14.8873 9.51364 14.8131 9.62529 14.7192 9.71918C14.6253 9.81307 14.5136 9.88733 14.3907 9.93761C14.2678 9.98789 14.1362 10.0132 14.0034 10.012C13.8706 10.0109 13.7394 9.9833 13.6174 9.93089C13.4954 9.87848 13.385 9.8023 13.2928 9.70679L9.29279 5.70679C9.10532 5.51926 9 5.26495 9 4.99979C9 4.73462 9.10532 4.48031 9.29279 4.29279L13.2928 0.292786C13.4803 0.105315 13.7346 0 13.9998 0C14.265 0 14.5193 0.105315 14.7068 0.292786Z" fill="black"/>
<path class="filled" fill-rule="evenodd" clip-rule="evenodd" d="M10.2932 23.707C10.1057 23.5194 10.0004 23.2651 10.0004 23C10.0004 22.7348 10.1057 22.4805 10.2932 22.293L12.5862 20L10.0002 20C8.1437 20 6.36322 19.2625 5.05047 17.9497C3.73771 16.637 3.00021 14.8565 3.00021 13L3.00021 11C3.00021 10.7348 3.10557 10.4804 3.29311 10.2929C3.48064 10.1053 3.735 9.99997 4.00021 9.99997C4.26543 9.99997 4.51979 10.1053 4.70732 10.2929C4.89486 10.4804 5.00021 10.7348 5.00021 11L5.00021 13C5.00021 14.3261 5.527 15.5978 6.46468 16.5355C7.40236 17.4732 8.67413 18 10.0002 18L12.5862 18L10.2932 15.707C10.1977 15.6147 10.1215 15.5044 10.0691 15.3824C10.0167 15.2604 9.98912 15.1291 9.98796 14.9964C9.98681 14.8636 10.0121 14.7319 10.0624 14.609C10.1127 14.4861 10.1869 14.3745 10.2808 14.2806C10.3747 14.1867 10.4864 14.1124 10.6093 14.0621C10.7322 14.0119 10.8638 13.9866 10.9966 13.9877C11.1294 13.9889 11.2606 14.0165 11.3826 14.0689C11.5046 14.1213 11.615 14.1975 11.7072 14.293L15.7072 18.293C15.8947 18.4805 16 18.7348 16 19C16 19.2651 15.8947 19.5194 15.7072 19.707L11.7072 23.707C11.5197 23.8944 11.2654 23.9998 11.0002 23.9998C10.735 23.9998 10.4807 23.8944 10.2932 23.707Z" fill="black"/>
<path class="stroked" d="M6.25 8H1.75C1.55109 8 1.36032 7.92098 1.21967 7.78033C1.07902 7.63968 1 7.44891 1 7.25V2.75C1 2.55109 1.07902 2.36032 1.21967 2.21967C1.36032 2.07902 1.55109 2 1.75 2H6.25C6.44891 2 6.63968 2.07902 6.78033 2.21967C6.92098 2.36032 7 2.55109 7 2.75V7.25C7 7.44891 6.92098 7.63968 6.78033 7.78033C6.63968 7.92098 6.44891 8 6.25 8Z" stroke="black" stroke-width="2" stroke-linecap="round" stroke-linejoin="round"/>
<path class="stroked" d="M23.25 22H18.75C18.5511 22 18.3603 21.921 18.2197 21.7803C18.079 21.6397 18 21.4489 18 21.25V16.75C18 16.5511 18.079 16.3603 18.2197 16.2197C18.3603 16.079 18.5511 16 18.75 16H23.25C23.4489 16 23.6397 16.079 23.7803 16.2197C23.921 16.3603 24 16.5511 24 16.75V21.25C24 21.4489 23.921 21.6397 23.7803 21.7803C23.6397 21.921 23.4489 22 23.25 22Z" stroke="black" stroke-width="2" stroke-linecap="round" stroke-linejoin="round"/>
</svg>
