<svg width="33" height="27" viewBox="0 0 33 27" fill="none" xmlns="http://www.w3.org/2000/svg">
<path fill-rule="evenodd" clip-rule="evenodd" d="M18.7278 5.44889H21.1044H23.4809C25.4564 5.44889 27.052 7.0433 27.052 9.02258V16.1384H29.4311V9.02258C29.4311 5.72899 26.77 3.06982 23.4809 3.06982H21.1044H18.7278V5.44889ZM14.2717 22.1023H11.8951H9.5185C7.55013 22.1023 5.94742 20.4981 5.94742 18.5338V12.5861H3.56836V18.5338C3.56836 21.8114 6.23569 24.4814 9.5185 24.4814H11.8951H14.2717V22.1023Z" fill="white"/>
<path fill-rule="evenodd" clip-rule="evenodd" d="M5.59925 10.5554C5.13471 10.0909 4.38154 10.0909 3.917 10.5554L0.348406 14.124C-0.116135 14.5886 -0.116135 15.3417 0.348406 15.8063C0.812947 16.2708 1.56612 16.2708 2.03066 15.8063L4.75813 13.1809L7.4856 15.8063C7.95014 16.2708 8.70331 16.2708 9.16785 15.8063C9.63239 15.3417 9.63239 14.5886 9.16785 14.124L5.59925 10.5554Z" fill="white"/>
<path fill-rule="evenodd" clip-rule="evenodd" d="M28.242 14.3703L25.5145 11.7449C25.05 11.2803 24.2968 11.2803 23.8323 11.7449C23.3678 12.2094 23.3678 12.9626 23.8323 13.4271L27.4009 16.9957C27.8654 17.4603 28.6186 17.4603 29.0831 16.9957L32.6517 13.4271C33.1163 12.9626 33.1163 12.2094 32.6517 11.7449C32.1872 11.2803 31.434 11.2803 30.9695 11.7449L28.242 14.3703Z" fill="white"/>
<rect x="16.1162" y="18.4185" width="12.279" height="8.44184" rx="1" fill="white"/>
<rect x="4.60449" width="12.279" height="8.44184" rx="1" fill="white"/>
</svg>
