<svg width="53" height="60" viewBox="0 0 53 60" fill="none" xmlns="http://www.w3.org/2000/svg">
<circle cx="25" cy="25" r="25" transform="rotate(-180 25 25)" fill="black" fill-opacity="0.1"/>
<path class="filled" d="M25 50C28.283 50 31.5339 49.3534 34.5671 48.097C37.6002 46.8406 40.3562 44.9991 42.6777 42.6777C44.9991 40.3562 46.8406 37.6002 48.097 34.5671C49.3534 31.5339 50 28.283 50 25L25 25L25 50Z" fill="black" fill-opacity="0.3"/>
<circle cx="25" cy="25" r="4" transform="rotate(-90 25 25)" fill="black"/>
<path d="M25 50C31.6304 50 37.9893 47.3661 42.6777 42.6777C47.3661 37.9893 50 31.6304 50 25" stroke="black" stroke-width="6" stroke-linecap="round" stroke-linejoin="round"/>
<path d="M25.9365 43.0001L21.0024 49.5751L25.9316 56.1387" stroke="black" stroke-width="6" stroke-linecap="round" stroke-linejoin="round"/>
</svg>
