<svg width="70" height="70" viewBox="0 0 70 70" fill="none" xmlns="http://www.w3.org/2000/svg">
<circle cx="34.6482" cy="34.6483" r="24.7487" transform="rotate(90 34.6482 34.6483)" fill="#CB5643"/>
<path d="M35 59.7487C38.25 59.7487 41.4683 59.1086 44.4709 57.8649C47.4736 56.6211 50.2019 54.7981 52.5 52.5C54.7981 50.2019 56.6211 47.4736 57.8648 44.4709C59.1086 41.4683 59.7487 38.2501 59.7487 35L35 35L35 59.7487Z" fill="#8E3C2F"/>
<path d="M35.8737 59.865C39.1852 59.865 42.4643 59.2127 45.5237 57.9455C48.5831 56.6782 51.363 54.8208 53.7046 52.4792C56.0462 50.1376 57.9037 47.3577 59.1709 44.2982C60.4382 41.2388 61.0905 37.9597 61.0905 34.6482" stroke="black" stroke-width="6" stroke-linecap="round" stroke-linejoin="round"/>
<path d="M37.9407 53.3407L33.0065 59.9157L37.9358 66.4792" stroke="black" stroke-width="6" stroke-linecap="round" stroke-linejoin="round"/>
<circle cx="35.1432" cy="35.1432" r="3.46482" transform="rotate(-180 35.1432 35.1432)" fill="black"/>
</svg>
