<svg width="62" height="53" viewBox="0 0 62 53" fill="none" xmlns="http://www.w3.org/2000/svg">
<circle cx="34" cy="25" r="25" transform="rotate(-90 34 25)" fill="black" fill-opacity="0.1"/>
<path class="filled" d="M9 25C9 28.283 9.64665 31.5339 10.903 34.5671C12.1594 37.6002 14.0009 40.3562 16.3223 42.6777C18.6438 44.9991 21.3998 46.8406 24.4329 48.097C27.4661 49.3534 30.717 50 34 50C37.2831 50 40.5339 49.3534 43.5671 48.097C46.6002 46.8406 49.3562 44.9991 51.6777 42.6777C53.9991 40.3562 55.8406 37.6002 57.097 34.5671C58.3534 31.5339 59 28.283 59 25L9 25Z" fill="black" fill-opacity="0.3"/>
<circle cx="34" cy="25" r="4" fill="black"/>
<path d="M9 25C9 31.6304 11.6339 37.9893 16.3223 42.6777C21.0107 47.3661 27.3696 50 34 50C40.6304 50 46.9893 47.3661 51.6777 42.6777C56.3661 37.9893 59 31.6304 59 25" stroke="black" stroke-width="6" stroke-linecap="round" stroke-linejoin="round"/>
<path d="M16.1386 29.1919L9.56353 24.2577L3 29.187" stroke="black" stroke-width="6" stroke-linecap="round" stroke-linejoin="round"/>
</svg>
