<svg width="70" height="70" viewBox="0 0 70 70" fill="none" xmlns="http://www.w3.org/2000/svg">
<circle cx="34.6482" cy="34.6483" r="24.7487" transform="rotate(90 34.6482 34.6483)" fill="#CB5643"/>
<path d="M10.2513 35C10.2513 41.5638 12.8587 47.8587 17.5 52.5C22.1413 57.1413 28.4362 59.7487 35 59.7487C41.5638 59.7487 47.8587 57.1413 52.5 52.5C57.1413 47.8587 59.7487 41.5638 59.7487 35L35 35L10.2513 35Z" fill="#8E3C2F"/>
<path d="M9.66686 35.3572C9.66686 42.0451 12.3236 48.4591 17.0527 53.1881C21.7818 57.9172 28.1957 60.574 34.8837 60.574C41.5716 60.574 47.9856 57.9172 52.7146 53.1881C57.4437 48.4591 60.1005 42.0451 60.1005 35.3572" stroke="black" stroke-width="6" stroke-linecap="round" stroke-linejoin="round"/>
<path d="M16.2811 39.5784L9.58391 34.8114L3.14661 39.9044" stroke="black" stroke-width="6" stroke-linecap="round" stroke-linejoin="round"/>
<circle cx="35.1432" cy="35.1432" r="3.46482" transform="rotate(-180 35.1432 35.1432)" fill="black"/>
</svg>
