<?xml version="1.0" encoding="utf-8"?>
<!-- Generator: Adobe Illustrator 24.2.0, SVG Export Plug-In . SVG Version: 6.00 Build 0)  -->
<svg version="1.1" id="Layer_1" xmlns="http://www.w3.org/2000/svg" xmlns:xlink="http://www.w3.org/1999/xlink" x="0px" y="0px"
	 viewBox="0 0 67 62" style="enable-background:new 0 0 67 62;" xml:space="preserve">
<style type="text/css">
	.st0{fill:none;stroke:#000000;stroke-width:4;}
	.st1{fill:#FFFFFF;stroke:#000000;stroke-width:3;}
	.st2{fill:none;stroke:#000000;stroke-width:3;}
</style>
<path d="M46.7,24.5c-0.4,0.8,0,1.8,0.8,2.2c1.5,0.7,2.5,2.7,2.5,4.9c0,2.3-1,4.2-2.5,4.9c-0.8,0.4-1.2,1.4-0.8,2.2
	c0.4,0.8,1.4,1.2,2.2,0.8c2.7-1.2,4.5-4.4,4.5-8s-1.8-6.8-4.5-8C48.1,23.3,47.1,23.7,46.7,24.5z"/>
<path class="st0" d="M22,39.4V22.6c0-8.3,6.7-15,15-15h9.6c8.3,0,15,6.7,15,15v16.8c0,8.3-6.7,15-15,15H37
	C28.7,54.4,22,47.7,22,39.4z"/>
<rect x="10.6" y="28.4" width="10.4" height="4.7"/>
<circle class="st1" cx="10.1" cy="30.8" r="5.2"/>
<path class="st2" d="M50.7,53.9c0,2.3-0.8,4.4-2.4,6c-1.5,1.6-3.6,2.5-5.7,2.5s-4.2-0.9-5.7-2.5c-1.5-1.6-2.4-3.8-2.4-6"/>
<path class="st2" d="M34.6,6.6c0-2,0.8-3.9,2.4-5.4C38.5-0.2,40.6-1,42.7-1s4.2,0.8,5.7,2.2c1.5,1.4,2.4,3.4,2.4,5.4"/>
<circle class="st2" cx="36.6" cy="40.2" r="6.2"/>
<circle cx="36.6" cy="40.2" r="2.4"/>
<circle class="st2" cx="36.6" cy="22.2" r="6.2"/>
<circle cx="36.6" cy="22.2" r="2.4"/>
</svg>
