<svg xmlns="http://www.w3.org/2000/svg" viewBox="0 0 70.12 56.96"><g id="Layer_2" data-name="Layer 2"><g id="Layer_1-2" data-name="Layer 1"><path d="M15.48,36.71c0-5.12.55-10.16-4.4-10.16A10.69,10.69,0,0,0,0,37.43c0,5.13,5.06,8.8,10.63,8.8C15.58,46.23,15.48,41.84,15.48,36.71Z" style="fill:#fff"/><path d="M65.13,43.11a13,13,0,0,1-12.94,13H29.42a13,13,0,0,1-12.94-13V27.16a13,13,0,0,1,12.94-13H52.19a13,13,0,0,1,12.94,13Z" style="fill:#fff"/><rect x="36.46" y="27.05" width="5.4" height="12.29" rx="2.34"/><rect x="45.84" y="27.05" width="5.4" height="12.29" rx="2.34"/><path d="M52.13,20.79H31.77A9.27,9.27,0,0,0,22.52,30v7.58a9.28,9.28,0,0,0,9.25,9.26H52.13a9.28,9.28,0,0,0,9.25-9.26V30A9.27,9.27,0,0,0,52.13,20.79Zm7.94,16.13a8.45,8.45,0,0,1-8.45,8.4H32.42A8.45,8.45,0,0,1,24,36.92V30.43A8.45,8.45,0,0,1,32.42,22h19.2a8.45,8.45,0,0,1,8.45,8.4Z"/><path d="M11.06,37.36c0-3.93.37-8.22-2.55-8.22-4.39,0-6.58,4.84-6.58,8.77a6.3,6.3,0,0,0,6.21,6.57C11.06,44.48,11.06,41.3,11.06,37.36Z"/><path d="M70.12,37.08c0-3-1.25-6.43-3.73-8,0-1.42,0-2.33,0-2.33A13.52,13.52,0,0,0,52.89,13.3H34.36V2.7a2.7,2.7,0,1,0-5.4,0V13.31a13.26,13.26,0,0,0-2.91.41V2.7a2.71,2.71,0,0,0-5.41,0V13.87A13.31,13.31,0,0,0,9.4,26.62h.37C13.5,26.61,13,32.08,13,37.1c0,4.83,0,8.78-3.31,9.08A13.3,13.3,0,0,0,22.65,56.54s5.55.42,6.7.42H52.89A13.52,13.52,0,0,0,66.18,45.7a12.59,12.59,0,0,0,.16-2.56A6.43,6.43,0,0,0,70.12,37.08Zm-5,6a13,13,0,0,1-12.94,13H29.42a13,13,0,0,1-12.94-13V27.16a13,13,0,0,1,12.94-13H52.19a13,13,0,0,1,12.94,13Z"/></g></g></svg>
