<svg width="67" height="62" viewBox="0 0 67 62" fill="none" xmlns="http://www.w3.org/2000/svg">
<path d="M39.4401 44.263C38.6016 43.8962 37.606 44.263 37.2392 45.1015C36.558 46.5687 34.5667 47.6167 32.3135 47.6167C30.0602 47.6167 28.069 46.5687 27.3878 45.1015C27.021 44.263 26.0253 43.8962 25.1869 44.263C24.3485 44.6299 23.9817 45.6255 24.3485 46.4639C25.5537 49.1364 28.7502 50.918 32.3135 50.918C35.8768 50.918 39.0733 49.1364 40.2785 46.4639C40.6453 45.6255 40.2785 44.6299 39.4401 44.263Z" fill="black"/>
<rect x="9.59766" y="19.499" width="46.8" height="39.6" rx="15" stroke="black" stroke-width="4"/>
<rect x="30.8442" y="8.08887" width="4.74107" height="10.4304" fill="black"/>
<circle cx="33.2152" cy="7.61459" r="5.21518" fill="white" stroke="black" stroke-width="3"/>
<path d="M10.0342 48.2193C7.77084 48.2193 5.6002 47.3701 3.99978 45.8586C2.39936 44.3471 1.50025 42.297 1.50025 40.1594C1.50025 38.0218 2.39936 35.9718 3.99978 34.4603C5.6002 32.9488 7.77084 32.0996 10.0342 32.0996" stroke="black" stroke-width="3"/>
<path d="M57.3501 32.1802C59.362 32.1802 61.2914 33.0293 62.714 34.5408C64.1366 36.0523 64.9358 38.1024 64.9358 40.24C64.9358 42.3776 64.1366 44.4276 62.714 45.9391C61.2914 47.4506 59.362 48.2998 57.3501 48.2998" stroke="black" stroke-width="3"/>
<circle cx="23.7327" cy="34.1644" r="6.16339" stroke="black" stroke-width="3"/>
<circle cx="23.7319" cy="34.1645" r="2.37054" fill="black"/>
<circle cx="41.7484" cy="34.1644" r="6.16339" stroke="black" stroke-width="3"/>
<circle cx="41.748" cy="34.1645" r="2.37054" fill="black"/>
</svg>
