<svg width="47" height="47" viewBox="0 0 47 47" fill="none" xmlns="http://www.w3.org/2000/svg">
<g filter="url(#filter0_d)">
<circle cx="23.5" cy="22.5" r="22.5" fill="#4C9990"/>
</g>
<path d="M17.6694 21.9375H17.6821M25.3398 21.9375H25.3526M24.0614 12.9886C22.783 12.9886 23.0566 12.9886 21.5046 12.9886C18.4531 12.9886 15.5266 14.2009 13.3688 16.3586C11.2111 18.5163 9.9989 21.4428 9.9989 24.4943C9.9989 26.0053 10.2965 27.5014 10.8747 28.8974C11.4529 30.2933 12.3004 31.5617 13.3688 32.6301C14.4372 33.6985 15.7056 34.546 17.1015 35.1242C18.4975 35.7024 19.9936 36 21.5046 36C23.0155 36 24.5117 35.7024 25.9076 35.1242C27.3036 34.546 28.5719 33.6985 29.6403 32.6301C30.7087 31.5617 31.5562 30.2933 32.1344 28.8974C32.7127 27.5014 33.0103 26.0053 33.0103 24.4943C33.0103 23.2977 33.0103 23.2159 33.0103 21.9375M25.1199 28.1097C24.161 29.0683 22.8605 29.6069 21.5046 29.6069C20.1486 29.6069 18.8482 29.0683 17.8892 28.1097H25.1199Z" stroke="#1E1E1E" stroke-width="1.93182" stroke-linecap="round" stroke-linejoin="round"/>
<path d="M33.0112 12.9886H27.8976M33.0112 7.875V12.9886V7.875ZM33.0112 12.9886V18.1023V12.9886ZM33.0112 12.9886H38.1249H33.0112Z" stroke="#1E1E1E" stroke-width="1.93182" stroke-linecap="round" stroke-linejoin="round"/>
<defs>
<filter id="filter0_d" x="0" y="0" width="47" height="47" filterUnits="userSpaceOnUse" color-interpolation-filters="sRGB">
<feFlood flood-opacity="0" result="BackgroundImageFix"/>
<feColorMatrix in="SourceAlpha" type="matrix" values="0 0 0 0 0 0 0 0 0 0 0 0 0 0 0 0 0 0 127 0"/>
<feOffset dy="1"/>
<feGaussianBlur stdDeviation="0.5"/>
<feColorMatrix type="matrix" values="0 0 0 0 0.0980392 0 0 0 0 0.156863 0 0 0 0 0.184314 0 0 0 0.5 0"/>
<feBlend mode="normal" in2="BackgroundImageFix" result="effect1_dropShadow"/>
<feBlend mode="normal" in="SourceGraphic" in2="effect1_dropShadow" result="shape"/>
</filter>
</defs>
</svg>
