<svg width="65" height="38" viewBox="0 0 65 38" fill="white" xmlns="http://www.w3.org/2000/svg">
<path d="M61.7707 14.8005C61.7707 14.8005 59.1692 18.6635 61.7707 23.1972C61.7707 23.1972 65.1658 20.0468 64.769 18.9594C64.3723 17.872 63.7051 16.2453 61.7707 14.8005Z" fill="black"/>
<path d="M22.2352 8.01085C22.2352 8.01085 16.7311 4.55351 24.9728 0H0C0 0 18.0635 2.54093 14.8574 9.88311" fill="black"/>
<path d="M63.991 18.9353C63.991 18.9353 63.751 17.6265 62.5799 16.3067C61.2744 14.8334 56.2733 8.90971 38.5286 7.63376C20.7838 6.35781 15.418 9.72745 7.50452 12.7375V18.9375V19.0647V25.2646C15.418 28.2747 20.7838 31.6422 38.5286 30.3662C56.2733 29.0903 61.2245 23.0876 62.5799 21.6933C63.7663 20.4722 64.0582 19.4242 63.991 18.9353Z" stroke="black" stroke-width="2" stroke-miterlimit="10"/>
<path d="M22.2352 29.9891C22.2352 29.9891 16.7311 33.4465 24.9728 38H0C0 38 18.0635 35.4591 14.8574 28.1169" fill="black"/>
<path d="M46.6032 20.5999C47.8671 20.5999 48.8916 19.4976 48.8916 18.1379C48.8916 16.7782 47.8671 15.6759 46.6032 15.6759C45.3394 15.6759 44.3148 16.7782 44.3148 18.1379C44.3148 19.4976 45.3394 20.5999 46.6032 20.5999Z" fill="black"/>
<path d="M38.2751 20.5999C39.539 20.5999 40.5635 19.4976 40.5635 18.1379C40.5635 16.7782 39.539 15.6759 38.2751 15.6759C37.0113 15.6759 35.9867 16.7782 35.9867 18.1379C35.9867 19.4976 37.0113 20.5999 38.2751 20.5999Z" fill="black"/>
<path d="M29.5216 20.5999C30.7854 20.5999 31.81 19.4976 31.81 18.1379C31.81 16.7782 30.7854 15.6759 29.5216 15.6759C28.2577 15.6759 27.2332 16.7782 27.2332 18.1379C27.2332 19.4976 28.2577 20.5999 29.5216 20.5999Z" fill="black"/>
<path d="M7.50453 13.8929L3.16577 16.2146V22.1844L7.50453 24.1071" fill="black"/>
</svg>
