<svg xmlns="http://www.w3.org/2000/svg" width="300" height="300" viewBox="0 0 300 300"><g id="a1984dd4-22d2-4d7d-8f6f-d0f8ef6aa759" data-name="Pattern"><circle cx="199.75" cy="176.34" r="12.81" fill="none"/><polygon points="56.15 295.39 56.11 295.31 56.03 295.41 56.15 295.39" fill="none"/><path d="M156.92,74.52a35.66,35.66,0,0,0-4,.32,8.76,8.76,0,0,0-1.45.33,11,11,0,0,0,1.76.82,50.27,50.27,0,0,0,6.34,1.87l1.77.4a14.34,14.34,0,0,1,.42-3.75C159.87,74.47,158.36,74.47,156.92,74.52Z" fill="none"/><path d="M134.28,147.56c1.77-.77,4.52-.13,7.25.95l-8.92-7.37a3.85,3.85,0,0,1-.48,3.33,2.77,2.77,0,0,1-1.48.95c.91,1,1.72,2,2.45,3A3.19,3.19,0,0,1,134.28,147.56Z" fill="none"/><path d="M299.11,264.14c-.41,0-.81,0-1.22-.05a15.93,15.93,0,0,1-10.33-4.66,14.48,14.48,0,0,1-3.43-5.53,12.46,12.46,0,0,1-.58-2.46h0l-1-.28a57.58,57.58,0,0,1-8-2.76,12,12,0,0,1-2.23-1.23,3.65,3.65,0,0,1-1-1,1.78,1.78,0,0,1,.46-2.57,3.17,3.17,0,0,1,.89-.44,11.94,11.94,0,0,1,2.73-.51,41.89,41.89,0,0,1,4.83-.06c1.47,0,3,.14,4.79.3a15.25,15.25,0,0,1,1.32-2.13h0a16,16,0,0,1,7.36-5.45,15.6,15.6,0,0,1,2.95-.79,17.56,17.56,0,0,1,3.24-.24c.23,0,.46,0,.7,0V198.05l-1.7-.24,1.7-.18v-13l-1.12.22-.62,8.91-2-8.83L286,183.57l10.64-1L298,172.23l1.12,10.16,1.4,0V124c-.87-.77-1.76-1.56-2.69-2.42-12.9-11.9-14.29-18.74-14.75-21l0-.23c-.35-1.63-.13-2.92.59-3.54l.57.67-.52-.7a5.25,5.25,0,0,1,3-.87q5.83-.13,13.87,4.18v-26l-2.54.22-.51,4.41-1,0-.2-4.36-6-.52,5.94-1.46.28-3.91,1,0,.46,3.95,2.59.66V62.71l-1.68-.1,1.68-.26v-14l-7.77-.49,7.77-1.37V.35H265.18l1.53,8.58,10.67.62-10.77,1.77L265,20.22l-1-8.88L252.69,9.55,264.2,8.9l.58-8.55H251.72l-.39,3.38-1,0L250.09.35H199.65c.24.24.48.48.73.71a18.58,18.58,0,0,0,14.4,4.37l2.66-.28-1.83,2a21.25,21.25,0,0,1-15.49,6.82,19.4,19.4,0,0,1-11.38-3.63,19.3,19.3,0,0,1-7.17-10H148.31l3.88.68-8.57.54-.54,8.88-1.43-8.9-8-.52,3.75-.68H74A5.38,5.38,0,0,1,71.6,6.7,5.35,5.35,0,0,1,63.82.35h-1.1L60,2,59.06.35H56.6L30.36,15.72,25.71,7.78,38.4.35H1V46.42l.23-.05L2,38.68l1.25,7.71,8.06,1.47-8,.52L1.86,57.27,1.32,48.4l-.35,0v13.9l9.2-1.46,1-8.88,1.61,8.9,10.78,1.77-10.68.62L11.05,73.45l-.7-10.19L1,62.73V73.15l2.64.67L1,74.06v26.23a85.22,85.22,0,0,1,9.38,6.08A94.7,94.7,0,0,1,22.79,117c.52.07,1.31.06,1.61-.33.19-.24.67-1.32-1.16-4.85L21,107.43l23.29,19.22-1.18,1.61c-4.11-2.7-11.58-6.57-14.16-5.46a1.25,1.25,0,0,0-.7.79c.84,1.19,1.61,2.36,2.39,3.54.54.83,1.09,1.67,1.68,2.53l.42.62-3.6,4.37h0L25.56,139l-.69-.3c-1-.41-1.89-.79-2.81-1.17-1.3-.54-2.6-1.07-3.93-1.67a1.22,1.22,0,0,0-.63.84c-.61,2.75,4.61,9.35,8,12.86L24.19,151,1,131.82v50.59l9.68.15L1,184.51v13.07L6.79,197,7.85,188l.91,8.85,8.58.18L9,198.88l-.45,7.72L6.94,199l-6-.84v36.26a15.91,15.91,0,0,1,9,3.68,14.45,14.45,0,0,1,4.65,7.11,13.89,13.89,0,0,1,.53,3.29c1.8.51,3.47,1.05,5.07,1.65a23.18,23.18,0,0,1,3.61,1.6,6.43,6.43,0,0,1,1.52,1.11,1.89,1.89,0,0,1-.56,3.2,6.74,6.74,0,0,1-2.16.59,27.55,27.55,0,0,1-3.67.21h0c-2,0-4-.13-5.91-.27a15.12,15.12,0,0,1-3.09,3.62,16.32,16.32,0,0,1-7.51,3.65c-.47.09-.94.16-1.4.21v35.89H39.15L52,292.37l1.62,2.77L55,293.48l-2.73-4.67,4.12-2.41h0a5.78,5.78,0,0,1-1.37-.17,5.49,5.49,0,1,1,6-2.51l4.44-2.6,2.76,4.71,2-.38-1.57-2.68L95,267.35l4.65,7.94L73.32,290.7l-1.62-2.77-1.34,1.6,2.77,4.72-4.21,2.46a5.37,5.37,0,0,1,4.6,2.64,5.69,5.69,0,0,1,.26.56h66l1.9-.35,1.26-7.71.76,7.69,2.08.37h35.63a21.42,21.42,0,0,1,3.26-18.51,21.7,21.7,0,0,1,12-8.34l2.47-.66-1.37,2.16c-5.4,8.5-4.75,18.88,1.38,25.35h50.86v-.11l-5.94-1.46,6-.52.19-4.36,1,0,.5,4.41,5.62.5-5.66,1.44,0,.13h13l.08-1.2.22,1.2h35.42V264.06A13.67,13.67,0,0,1,299.11,264.14ZM12.89,172.71l-.12,3.92-1,.06-.62-3.93-5.72-1.2,5.6-.74.32-4.42h1l.37,4.34,6,.28Zm221.84-66,.15-3.33,1,0,.38,3.38,5,.45-5,1.27-.35,3-1,0-.21-3-5.23-1.28ZM147.46,21.6l1,0,.28,3.9L154.68,27l-6,.52-.19,4.36-1,0-.5-4.41-5.62-.5L147,25.55ZM132.18,14l1.62-8.9,1,8.88,11.32,1.79-11.51.65-.69,10.19L132.08,16.4l-10.67-.62ZM91.3,67.5,82.44,68,81,76.41,80.38,68l-9.49-.54L80.25,66l.81-7.26L82.37,66ZM73.76,55.57l.65-6.51,1.07,6.52,6.83,1.25-6.79.44-1.21,7.56-.46-7.55-7.23-.45ZM70.15,74.38l.19-2.73,1,0,.32,2.76,4.79,1.22L71.69,76l-.35,3.07-1,0-.13-3-5.08-.44Zm-2,151.91A14.81,14.81,0,1,1,83,211.48,14.83,14.83,0,0,1,68.19,226.29Zm62.21,16.3-1.65-9.28-9.74-.57,9.83-1.61,1.46-8.07.89,8.05,10.31,1.63-10.47.59Zm-.81-22.5,7.42-1.35,1.16-7.1.71,7.08,7.77,1.37-7.87.5-.51,8.19L137,220.57Zm13.5,22.74-.17,3.67-1,0-.43-3.72-5.18-.47,5.22-1.32.39-3.34,1,0,.24,3.3,5.46,1.34Zm6.14-88c-4.1-2.7-11.58-6.57-14.15-5.45a1.2,1.2,0,0,0-.7.78c.84,1.19,1.61,2.36,2.38,3.54.55.83,1.1,1.67,1.69,2.53l.42.62-3.61,4.38h0l-3.54,4.29-.69-.29c-1-.42-1.89-.8-2.81-1.18-1.31-.53-2.6-1.07-3.93-1.67a1.29,1.29,0,0,0-.64.84c-.6,2.74,4.62,9.34,8,12.86l-1.35,1.47-23.3-19.22,4.71,1.4c3.82,1.13,4.78.46,5,.23s.19-1.16,0-1.65A95,95,0,0,1,104,148.13c-12.9-11.9-14.29-18.74-14.74-21l0-.23c-.35-1.63-.13-2.92.59-3.54l.57.67-.52-.7a5.21,5.21,0,0,1,3-.87c6.08-.16,14,3.38,23.69,10.49A96.16,96.16,0,0,1,129,143.56c.51.07,1.3.06,1.61-.33.19-.24.67-1.32-1.17-4.84L127.12,134l23.3,19.22Zm31.87-62.8a16.51,16.51,0,0,1-4.12.53h-.33a15.94,15.94,0,0,1-10.58-4.08,14.44,14.44,0,0,1-3.73-5.33,12.86,12.86,0,0,1-.72-2.42l-.06,0-1-.22a58.52,58.52,0,0,1-8.17-2.3,12.39,12.39,0,0,1-2.3-1.11,3.68,3.68,0,0,1-1-.9,1.79,1.79,0,0,1,.32-2.6,3,3,0,0,1,.86-.48,11.36,11.36,0,0,1,2.7-.66,43.47,43.47,0,0,1,4.82-.34c1.48,0,3,0,4.8,0a16.18,16.18,0,0,1,11.15-9,16.46,16.46,0,0,1,3.22-.42,15.91,15.91,0,0,1,10.29,3.19,14.36,14.36,0,0,1,5,6.84A13.35,13.35,0,0,1,193,76c1.83.41,3.53.86,5.16,1.36a24.22,24.22,0,0,1,3.68,1.4,6.41,6.41,0,0,1,1.58,1A1.88,1.88,0,0,1,203,83a6.31,6.31,0,0,1-2.12.71,25.7,25.7,0,0,1-3.7.42c-2,.11-4,.1-5.91.06A15.23,15.23,0,0,1,188.4,88,16.38,16.38,0,0,1,181.1,92.05Zm3.84,84.29a14.82,14.82,0,1,1,14.81,14.82A14.83,14.83,0,0,1,184.94,176.34Zm22.84,52.87,8.9-.88,1.16-8.53.92,8.42,9.59.15L219,230.25l-.51,7.36-1.63-7.29ZM226,240.59l-.38,6.59-1.34-6.53-6.94-1,6.82-.72.91-7.66.78,7.58,7.3.16Zm2.89-19.25-.08,2.78-1,.06-.44-2.79-4.88-1,4.78-.63.23-3.14h1l.26,3.08,5.13.23Zm11.49-92.43-1.11,6.79-.67-6.78-7.45-1.31,7.54-.47.48-7.86,1.26,7.87,7.06.46Zm7.5-11.37-1.39,7.65-.84-7.63L235.84,116l9.95-.57.6-8.79,1.57,8.82,9.27.54Zm9.19-91.77-1.26,7.71-.76-7.7L246.6,24.3l8.57-.54.54-8.88,1.42,8.9,8,.52Z" fill="none"/><path d="M286.79,97.88a3.87,3.87,0,0,0-1.82.42,2.87,2.87,0,0,0,0,1.6l.05.25c1.14,5.61,5.9,12.31,14.14,19.92l1.34,1.21v-19c-5.26-3-9.75-4.46-13.41-4.46Z" fill="none"/><path d="M115.08,162.38l8.93,7.37c-1.58-2.48-2.72-5.06-2.31-6.94a3.21,3.21,0,0,1,.63-1.33c-1.09-.53-2.23-1.14-3.41-1.83a2.89,2.89,0,0,1-.66,1.63A3.89,3.89,0,0,1,115.08,162.38Z" fill="none"/><path d="M91.16,126.48l0,.26c1.14,5.61,5.89,12.31,14.14,19.92,11.43,10.55,17.36,13,23.63,15.56l2.15.89,2.65-3.21h0l2.59-3.14-1.28-1.94c-3.72-5.67-7.24-11-19.77-20.25C106,127.73,98.45,124.31,93,124.47a3.83,3.83,0,0,0-1.82.42A2.73,2.73,0,0,0,91.16,126.48Z" fill="none"/><path d="M297,236.87a13.09,13.09,0,0,0-2.48.66,13.48,13.48,0,0,0-6.65,5.15,12,12,0,0,0-2.08,6.51,2.41,2.41,0,0,0,0,.38c4.88,1.22,9.82,2.23,14.77,3v-15.9c-.34,0-.67-.06-1-.06A15.24,15.24,0,0,0,297,236.87Z" fill="none"/><path d="M168,87.06a13.6,13.6,0,0,0,7.4,3.09,14.38,14.38,0,0,0,3.4-.05,14.11,14.11,0,0,0,9.77-6,186.35,186.35,0,0,1-24.4-2.87,11.81,11.81,0,0,0,3.83,5.8Z" fill="none"/><path d="M286.56,253.67a11.94,11.94,0,0,0,3,4.43,13.45,13.45,0,0,0,7.22,3.49,14.08,14.08,0,0,0,3.39.14c.12,0,.23,0,.34,0V255c-4.82-.77-9.65-1.72-14.46-2.89A11.79,11.79,0,0,0,286.56,253.67Z" fill="none"/><path d="M275.19,245.06a9.42,9.42,0,0,0-1.47.25,11.53,11.53,0,0,0,1.71.92,49.44,49.44,0,0,0,6.23,2.21c.58.18,1.16.34,1.75.5a14.2,14.2,0,0,1,.62-3.72c-1.89-.14-3.4-.23-4.83-.26A37.72,37.72,0,0,0,275.19,245.06Z" fill="none"/><circle cx="68.19" cy="211.48" r="12.81" fill="none"/><path d="M190.14,80.88a11.76,11.76,0,0,0,.53-3.42,11.45,11.45,0,0,0-.6-3.74,11.86,11.86,0,0,0-3.51-5.31,12.76,12.76,0,0,0-3.83-2.33,13.93,13.93,0,0,0-6-1,14.49,14.49,0,0,0-2.53.35,14.06,14.06,0,0,0-2.45.8,13.48,13.48,0,0,0-6.35,5.52,12,12,0,0,0-1.72,6.6c0,.13,0,.26,0,.39a179.91,179.91,0,0,0,26.09,3C189.93,81.51,190,81.21,190.14,80.88Z" fill="none"/><path d="M198.51,81.68a16.79,16.79,0,0,0,2.28-.35l.51-.14a5.86,5.86,0,0,0-.87-.47,33.86,33.86,0,0,0-4-1.39c-1.17-.34-2.37-.63-3.47-.89a14.5,14.5,0,0,1-.69,3.43A53.11,53.11,0,0,0,198.51,81.68Z" fill="none"/><path d="M63.47,299.91H64a3.48,3.48,0,0,1,.22-.43Z" fill="none"/><path d="M10.59,133.38c.32-.37.19-1.15,0-1.64A86.87,86.87,0,0,1,1,124.34v7.44l4.64,1.38C9.42,134.29,10.38,133.62,10.59,133.38Z" fill="none"/><path d="M25,136.52l2.65-3.21h0l2.6-3.15c-.44-.65-.86-1.29-1.28-1.93-3.73-5.67-7.25-11-19.77-20.25A89,89,0,0,0,1,102.57v19.1c10.28,9.19,15.92,11.52,21.85,14Z" fill="none"/><path d="M12.1,134.69a3.9,3.9,0,0,1-3.18,1.1l8.93,7.37c-1.58-2.48-2.72-5.06-2.31-6.94a3.34,3.34,0,0,1,.63-1.33c-1.09-.54-2.22-1.14-3.41-1.83A2.84,2.84,0,0,1,12.1,134.69Z" fill="none"/><path d="M67.18,299.15a3.6,3.6,0,0,0-.88.76h5.16A3.37,3.37,0,0,0,67.18,299.15Z" fill="none"/><polygon points="55.11 297.62 56.45 299.91 58.8 299.91 57.23 297.22 55.11 297.62" fill="none"/><path d="M28.13,121c1.77-.77,4.52-.14,7.25.94l-8.93-7.36a3.85,3.85,0,0,1-.48,3.33,2.73,2.73,0,0,1-1.48,1c.91,1,1.72,2,2.45,3A3.22,3.22,0,0,1,28.13,121Z" fill="none"/><polygon points="69.27 287.67 69.29 287.7 69.32 287.66 69.27 287.67" fill="none"/><path d="M10.28,256.31c-3.09-.32-6.2-.76-9.31-1.26v6.6A13.47,13.47,0,0,0,3.84,261,13.65,13.65,0,0,0,10.28,256.31Z" fill="none"/><path d="M20.33,254.41a15.68,15.68,0,0,0,2.29-.22,4.82,4.82,0,0,0,.52-.11,5.62,5.62,0,0,0-.85-.51A31.16,31.16,0,0,0,18.41,252c-1.08-.38-2.17-.72-3.42-1.08a14.39,14.39,0,0,1-.88,3.38A54.5,54.5,0,0,0,20.33,254.41Z" fill="none"/><path d="M12,253.16a12,12,0,0,0,.73-3.39,11.9,11.9,0,0,0-.39-3.77,12,12,0,0,0-3.21-5.49A13.17,13.17,0,0,0,5.44,238,14.08,14.08,0,0,0,1,236.73v16c3.55.57,7.11,1,10.66,1.38C11.77,253.77,11.89,253.48,12,253.16Z" fill="none"/><rect x="57.1" y="285.92" width="11.22" height="11.22" transform="translate(-138.78 71.7) rotate(-30.37)" fill="none"/><path d="M59.28,279.32a3.37,3.37,0,0,0-2.06-1.56,3.56,3.56,0,0,0-.86-.11,3.38,3.38,0,1,0,2.92,1.67Z" fill="none"/><path d="M189.9,8.68c6.66,4.78,15.84,4.19,22.33-1.14a20.18,20.18,0,0,1-13.16-5A18.57,18.57,0,0,1,196.93.35H183.66A17.46,17.46,0,0,0,189.9,8.68Z" fill="none"/><path d="M66,3.77A3.37,3.37,0,1,0,71.79.36H66A3.35,3.35,0,0,0,66,3.77Z" fill="none"/><path d="M194.81,275.81a19.86,19.86,0,0,0-8.48,6.76,19.39,19.39,0,0,0-2.8,17.34h13C191.41,293.38,190.69,284,194.81,275.81Z" fill="none"/><path d="M14.76,248.38h0v.08Z" fill="none"/><rect x="70.9" y="276.43" width="26.5" height="5.2" transform="translate(-129.54 80.85) rotate(-30.37)" fill="none"/><polygon points="31.08 12.98 52.65 0.35 42.36 0.35 28.45 8.5 31.08 12.98" fill="none"/><polygon points="51.31 295.1 43.11 299.91 53.39 299.91 53.94 299.59 51.31 295.1" fill="none"/><path d="M64.25,4.78A5.36,5.36,0,0,0,71.6,6.7,5.38,5.38,0,0,0,74,.35H71.79A3.37,3.37,0,1,1,66,3.77,3.35,3.35,0,0,1,66,.35H63.82A5.34,5.34,0,0,0,64.25,4.78Z" fill="#709999"/><polygon points="30.36 15.72 56.6 0.35 52.65 0.35 31.08 12.98 28.45 8.5 42.36 0.35 38.41 0.35 25.71 7.78 30.36 15.72" fill="#709999"/><polygon points="62.72 0.35 59.06 0.35 59.99 1.95 62.72 0.35" fill="#709999"/><path d="M214.57,176.34a14.82,14.82,0,1,0-14.82,14.82A14.84,14.84,0,0,0,214.57,176.34Zm-14.82,12.82a12.82,12.82,0,1,1,12.82-12.82A12.83,12.83,0,0,1,199.75,189.16Z" fill="#709999"/><polygon points="0.96 183.41 0.96 183.49 1.31 183.42 0.96 183.41" fill="#709999"/><polygon points="0.96 182.41 0.96 183.41 1.31 183.42 0.96 183.49 0.96 184.51 10.65 182.56 0.96 182.41" fill="#709999"/><polygon points="7.78 198.05 7.96 198.93 8.01 198.07 8.91 197.87 7.86 197.85 7.78 197.13 7.69 197.88 7.02 197.95 7.78 198.05" fill="#709999"/><path d="M8.51,206.6,9,198.88l8.38-1.83-8.58-.18L7.85,188,6.79,197,1,197.58v.53l6,.84Zm-.73-9.47.08.72,1,0-.9.2,0,.86-.18-.88L7,198l.67-.07Z" fill="#709999"/><polygon points="12.01 171.92 12.67 171.73 11.96 171.7 11.96 171.71 11.37 171.79 12.01 171.92" fill="#709999"/><path d="M12.35,166.39h-1L11,170.82l-5.6.74,5.72,1.2.62,3.93,1-.06.12-3.92,5.87-1.7-6-.28ZM12,171.7l.71,0-.66.19-.64-.13.59-.08Z" fill="#709999"/><polygon points="132.93 15.45 133.46 18.41 133.66 15.48 136.73 15.31 133.87 14.86 133.56 12.04 133.04 14.88 130.47 15.31 132.93 15.45" fill="#709999"/><path d="M133.9,26.62l.69-10.19,11.51-.65L134.78,14l-1-8.88L132.18,14l-10.77,1.77,10.67.62ZM133.56,12l.31,2.81,2.86.46-3.08.17-.2,2.93-.52-3-2.46-.14,2.57-.42Z" fill="#709999"/><polygon points="141.84 0.56 142.52 0.6 142.63 1.35 142.68 0.63 143.73 0.56 142.82 0.4 142.82 0.35 142.6 0.35 142.59 0.42 141.84 0.56" fill="#709999"/><polygon points="141.66 1.55 143.08 10.45 143.62 1.57 152.19 1.03 148.31 0.35 142.82 0.35 142.82 0.4 143.73 0.56 142.68 0.63 142.63 1.35 142.52 0.6 141.84 0.56 142.59 0.42 142.6 0.35 137.41 0.35 133.67 1.03 141.66 1.55" fill="#709999"/><polygon points="148.56 26.52 147.9 26.36 147.26 26.52 147.86 26.58 148.56 26.52" fill="#709999"/><path d="M147,27.49l.5,4.41,1,0,.19-4.36,6-.52-5.94-1.46-.28-3.9-1,0L147,25.55,141.34,27Zm.3-1,.64-.16.66.16-.7.06Z" fill="#709999"/><path d="M9.88,260.16A15.12,15.12,0,0,0,13,256.54c1.89.14,3.9.27,5.91.27h0a27.55,27.55,0,0,0,3.67-.21,6.74,6.74,0,0,0,2.16-.59,1.89,1.89,0,0,0,.56-3.2,6.43,6.43,0,0,0-1.52-1.11,23.18,23.18,0,0,0-3.61-1.6c-1.6-.6-3.27-1.14-5.07-1.65a13.89,13.89,0,0,0-.53-3.29,14.45,14.45,0,0,0-4.65-7.11,15.91,15.91,0,0,0-9-3.68v2.36A14.08,14.08,0,0,1,5.44,238a13.17,13.17,0,0,1,3.7,2.55A12,12,0,0,1,12.35,246a11.9,11.9,0,0,1,.39,3.77,12,12,0,0,1-.73,3.39c-.12.32-.24.61-.38.9-3.55-.34-7.11-.81-10.66-1.38v2.37c3.11.5,6.22.94,9.31,1.26A13.65,13.65,0,0,1,3.84,261a13.47,13.47,0,0,1-2.87.69V264c.46,0,.93-.12,1.4-.21A16.32,16.32,0,0,0,9.88,260.16Zm4.23-5.9a14.39,14.39,0,0,0,.88-3.38c1.25.36,2.34.7,3.42,1.08a31.16,31.16,0,0,1,3.88,1.61,5.62,5.62,0,0,1,.85.51,4.82,4.82,0,0,1-.52.11,15.68,15.68,0,0,1-2.29.22A54.5,54.5,0,0,1,14.11,254.26Zm.65-5.88,0,.07v-.08Z" fill="#709999"/><path d="M132.3,150.2a3.64,3.64,0,0,1,.8-1.78c-.73-1-1.54-2-2.45-3a5,5,0,0,1-2.43,0l.23-1,.24-1,.26,0A96.16,96.16,0,0,0,116.51,133c-9.66-7.11-17.61-10.65-23.69-10.49a5.21,5.21,0,0,0-3,.87l.52.7.73.86.06-.06,0,0a3.83,3.83,0,0,1,1.82-.42c5.5-.16,13.08,3.26,22.37,10.1,12.53,9.22,16.05,14.58,19.77,20.25l1.28,1.94-2.59,3.14,1.54,1.27-.06.08h0l3.61-4.38-.42-.62c-.59-.86-1.14-1.7-1.69-2.53-.77-1.18-1.54-2.35-2.38-3.54a2.57,2.57,0,0,0-.11.36Z" fill="#709999"/><path d="M129.39,138.39c1.84,3.52,1.36,4.6,1.17,4.84-.31.39-1.1.4-1.61.33l-.26,0-.24,1-.23,1a5,5,0,0,0,2.43,0,2.77,2.77,0,0,0,1.48-.95,3.85,3.85,0,0,0,.48-3.33l8.92,7.37c-2.73-1.08-5.48-1.72-7.25-.95a3.19,3.19,0,0,0-1.18.86,3.64,3.64,0,0,0-.8,1.78l2,.34a2.57,2.57,0,0,1,.11-.36,1.2,1.2,0,0,1,.7-.78c2.57-1.12,10,2.75,14.15,5.45l1.19-1.61L127.12,134Z" fill="#709999"/><path d="M133.78,159.9h0l-2.65,3.21-2.15-.89c-6.27-2.58-12.2-5-23.63-15.56-8.25-7.61-13-14.31-14.14-19.92l0-.26a2.73,2.73,0,0,1,0-1.59l0,0-.06.06-.73-.86-.57-.67c-.72.62-.94,1.91-.59,3.54l0,.23c.45,2.25,1.84,9.09,14.74,21a95,95,0,0,0,12.77,10.2c0-.09-.06-.18-.09-.25l1.82-.83a5.27,5.27,0,0,1,.43,2.4c1.18.69,2.32,1.3,3.41,1.83a3.65,3.65,0,0,1,1.58-1.12l.72,1.87a2.68,2.68,0,0,0-.34.17c1.33.6,2.62,1.14,3.93,1.67.92.38,1.85.76,2.81,1.18l.69.29,3.54-4.29.06-.08Z" fill="#709999"/><path d="M123.91,160.36a3.65,3.65,0,0,0-1.58,1.12,3.21,3.21,0,0,0-.63,1.33c-.41,1.88.73,4.46,2.31,6.94l-8.93-7.37a3.89,3.89,0,0,0,3.18-1.1,2.89,2.89,0,0,0,.66-1.63,5.27,5.27,0,0,0-.43-2.4l-1.82.83c0,.07.06.16.09.25.17.49.31,1.27,0,1.65s-1.16.9-5-.23l-4.71-1.4,23.3,19.22,1.35-1.47c-3.43-3.52-8.65-10.12-8-12.86a1.29,1.29,0,0,1,.64-.84,2.68,2.68,0,0,1,.34-.17Z" fill="#709999"/><path d="M28.94,128.23c.42.64.84,1.28,1.28,1.93l-2.6,3.15,1.55,1.27-.06.07h0l3.6-4.37-.42-.62c-.59-.86-1.14-1.7-1.68-2.53-.78-1.18-1.55-2.35-2.39-3.54a1.71,1.71,0,0,0-.1.36l-2-.35a3.55,3.55,0,0,1,.79-1.77c-.73-1-1.54-2-2.45-3a5,5,0,0,1-2.43,0l.24-1,.23-1,.26,0a94.7,94.7,0,0,0-12.44-10.6A85.22,85.22,0,0,0,1,100.29v2.28A89,89,0,0,1,9.17,108C21.69,117.2,25.21,122.56,28.94,128.23Z" fill="#709999"/><path d="M22.3,117.9l-.24,1a5,5,0,0,0,2.43,0,2.73,2.73,0,0,0,1.48-1,3.85,3.85,0,0,0,.48-3.33l8.93,7.36c-2.73-1.08-5.48-1.71-7.25-.94a3.22,3.22,0,0,0-1.19.86,3.55,3.55,0,0,0-.79,1.77l2,.35a1.71,1.71,0,0,1,.1-.36,1.25,1.25,0,0,1,.7-.79c2.58-1.11,10,2.76,14.16,5.46l1.18-1.61L21,107.43l2.27,4.36c1.83,3.53,1.35,4.61,1.16,4.85-.3.39-1.09.4-1.61.33l-.26,0Z" fill="#709999"/><path d="M10.52,131.49l1.81-.83a5.1,5.1,0,0,1,.43,2.4c1.19.69,2.32,1.29,3.41,1.83a3.63,3.63,0,0,1,1.59-1.12l.71,1.87a1.79,1.79,0,0,0-.34.17c1.33.6,2.63,1.13,3.93,1.67.92.38,1.85.76,2.81,1.17l.69.3,3.55-4.3.06-.07-1.55-1.27h0L25,136.52l-2.15-.89c-5.93-2.44-11.57-4.77-21.85-14v2.67a86.87,86.87,0,0,0,9.64,7.4A2.3,2.3,0,0,0,10.52,131.49Z" fill="#709999"/><path d="M25.54,149.51c-3.43-3.51-8.65-10.11-8-12.86a1.22,1.22,0,0,1,.63-.84,1.79,1.79,0,0,1,.34-.17l-.71-1.87a3.63,3.63,0,0,0-1.59,1.12,3.34,3.34,0,0,0-.63,1.33c-.41,1.88.73,4.46,2.31,6.94l-8.93-7.37a3.9,3.9,0,0,0,3.18-1.1,2.84,2.84,0,0,0,.66-1.63,5.1,5.1,0,0,0-.43-2.4l-1.81.83a2.3,2.3,0,0,1,.09.25c.17.49.3,1.27,0,1.64s-1.17.91-5-.22L1,131.78v0L24.19,151Z" fill="#709999"/><path d="M188.74,10.3a19.4,19.4,0,0,0,11.38,3.63,21.25,21.25,0,0,0,15.49-6.82l1.83-2-2.66.28a18.58,18.58,0,0,1-14.4-4.37c-.25-.23-.49-.47-.73-.71h-2.72a18.57,18.57,0,0,0,2.14,2.21,20.18,20.18,0,0,0,13.16,5c-6.49,5.33-15.67,5.92-22.33,1.14A17.46,17.46,0,0,1,183.66.35h-2.09A19.3,19.3,0,0,0,188.74,10.3Z" fill="#709999"/><polygon points="264.92 10.47 265.23 13.29 265.75 10.44 268.32 10.02 265.86 9.88 265.33 6.92 265.13 9.85 262.06 10.02 264.92 10.47" fill="#709999"/><path d="M252.69,9.55,264,11.34l1,8.88,1.62-8.9,10.77-1.77-10.67-.62L265.18.35h-.4L264.2,8.9Zm12.64-2.63.53,3,2.46.14-2.57.42-.52,2.85-.31-2.82L262.06,10l3.07-.17Z" fill="#709999"/><polygon points="256.27 24.73 256.15 23.98 256.11 24.7 255.06 24.77 255.97 24.93 256.05 25.79 256.2 24.91 256.94 24.77 256.27 24.73" fill="#709999"/><path d="M255.71,14.88l-.54,8.88-8.57.54,8.45,1.48.76,7.7,1.26-7.71,8.05-1.47-8-.52Zm.34,10.91-.08-.86-.91-.16,1.05-.06,0-.73.12.75.67,0-.74.14Z" fill="#709999"/><polygon points="251.33 3.73 251.72 0.35 250.09 0.35 250.33 3.71 251.33 3.73" fill="#709999"/><polygon points="69.32 287.66 70.62 286.1 70.24 285.45 68.19 285.83 69.27 287.67 69.32 287.66" fill="#709999"/><polygon points="70.62 286.1 69.32 287.66 69.29 287.7 70.36 289.53 71.7 287.93 70.62 286.1" fill="#709999"/><polygon points="54.73 296.97 55.11 297.62 57.23 297.22 56.15 295.39 56.03 295.41 54.73 296.97" fill="#709999"/><polygon points="54.73 296.97 56.03 295.41 56.11 295.31 55.03 293.48 53.65 295.13 54.73 296.97" fill="#709999"/><path d="M71.7,287.93l1.62,2.77,26.32-15.41L95,267.35,68.67,282.77l1.57,2.68.38.65Zm22.57-17.84,2.63,4.48L74,288l-2.62-4.49Z" fill="#709999"/><path d="M61,283.72a5.2,5.2,0,0,0,0-5.41,5.37,5.37,0,1,0-6,7.92,5.78,5.78,0,0,0,1.37.17h0Zm-7.53-1a3.38,3.38,0,0,1,2.9-5.08,3.56,3.56,0,0,1,.86.11,3.37,3.37,0,1,1-3.76,5Z" fill="#709999"/><path d="M68.92,296.71l-4.72,2.77a3.48,3.48,0,0,0-.22.43H66.3a3.6,3.6,0,0,1,.88-.76,3.37,3.37,0,0,1,4.28.76h2.32a5.69,5.69,0,0,0-.26-.56A5.37,5.37,0,0,0,68.92,296.71Z" fill="#709999"/><polygon points="54.73 296.97 53.65 295.13 52.03 292.37 39.15 299.91 43.11 299.91 51.31 295.1 53.94 299.59 53.39 299.91 56.45 299.91 55.11 297.62 54.73 296.97" fill="#709999"/><path d="M68.92,296.71l4.21-2.46-2.77-4.72-1.07-1.83,0,0-1.08-1.84-2.76-4.71L61,283.72l-4.57,2.68-4.12,2.41L55,293.48l1.08,1.83,0,.08,1.07,1.83,1.58,2.69h4.67l.73-.43ZM55,289.53l9.69-5.68,5.67,9.69-9.68,5.67Z" fill="#709999"/><polygon points="142.68 299.91 142.78 299.91 142.74 299.53 142.68 299.91" fill="#709999"/><polygon points="142.98 291.85 141.72 299.56 139.82 299.91 142.68 299.91 142.74 299.53 142.78 299.91 145.82 299.91 143.74 299.54 142.98 291.85" fill="#709999"/><path d="M197.82,274.56l1.37-2.16-2.47.66a21.7,21.7,0,0,0-12,8.34,21.42,21.42,0,0,0-3.26,18.51h2.08a19.39,19.39,0,0,1,2.8-17.34,19.86,19.86,0,0,1,8.48-6.76c-4.12,8.2-3.4,17.57,1.74,24.1h2.65C193.07,293.44,192.42,283.06,197.82,274.56Z" fill="#709999"/><polygon points="264.81 299.91 265.11 299.91 264.89 298.71 264.81 299.91" fill="#709999"/><polygon points="250.93 298.75 250.23 298.81 250.89 298.97 251.53 298.81 250.93 298.75" fill="#709999"/><path d="M257.45,298.34l-5.62-.5-.5-4.41-1,0-.19,4.36-6,.52,5.94,1.46v.11h1.71l0-.13Zm-7.22.47.7-.06.6.06-.64.16Z" fill="#709999"/><polygon points="80.26 67.03 81.32 67.09 81.39 68.2 81.6 67.06 82.24 67.03 81.52 66.91 81.29 65.69 81.16 66.89 80.26 67.03" fill="#709999"/><path d="M80.25,66,70.89,67.5l9.49.54L81,76.41,82.44,68l8.86-.52L82.37,66l-1.31-7.28Zm1.27.89.72.12-.64,0-.2,1.14-.08-1.11L80.26,67l.9-.14.13-1.2Z" fill="#709999"/><polygon points="74.31 64.83 75.52 57.27 82.31 56.83 75.48 55.58 74.41 49.06 73.76 55.57 66.62 56.83 73.85 57.28 74.31 64.83" fill="#709999"/><polygon points="70.34 79.08 71.34 79.11 71.69 76.04 76.45 75.61 71.66 74.39 71.34 71.63 70.34 71.65 70.15 74.38 65.13 75.61 70.21 76.05 70.34 79.08" fill="#709999"/><polygon points="8.21 62.14 11.29 62.31 11.49 65.24 12.01 62.28 14.47 62.14 11.9 61.72 11.39 58.87 11.08 61.69 8.21 62.14" fill="#709999"/><path d="M11.05,73.45l1.81-10.22,10.68-.62L12.76,60.84l-1.61-8.9-1,8.88L1,62.28v.45l9.38.53Zm.85-11.73,2.57.42L12,62.28l-.52,3-.2-2.93-3.08-.17,2.87-.45.31-2.82Z" fill="#709999"/><polygon points="2.26 47.45 2.31 48.18 2.43 47.43 3.1 47.39 2.35 47.25 2.21 46.37 2.12 47.23 1.21 47.39 2.26 47.45" fill="#709999"/><path d="M1.86,57.27l1.43-8.89,8-.52L3.22,46.39,2,38.68,1.2,46.37,1,46.42v2l.35,0Zm.35-10.91.14.89.75.14-.67,0-.12.75-.05-.73-1-.06.91-.16Z" fill="#709999"/><polygon points="0.96 73.15 0.96 74.06 3.61 73.82 0.96 73.15" fill="#709999"/><polygon points="297.91 180.46 297.51 183.43 295.05 183.68 297.64 183.99 298.27 186.81 298.47 183.99 300.53 183.58 300.53 183.41 298.23 183.37 297.91 180.46" fill="#709999"/><polygon points="298.01 172.23 296.62 182.52 285.98 183.57 296.82 184.9 298.8 193.73 299.41 184.82 300.53 184.6 300.53 183.58 298.47 183.99 298.27 186.81 297.64 183.99 295.05 183.68 297.51 183.43 297.91 180.46 298.23 183.37 300.53 183.41 300.53 182.41 299.13 182.38 298.01 172.23" fill="#709999"/><polygon points="300.53 198.05 300.53 197.63 298.83 197.81 300.53 198.05" fill="#709999"/><path d="M296.59,234.54a15.6,15.6,0,0,0-2.95.79,16,16,0,0,0-7.36,5.45h0a15.25,15.25,0,0,0-1.32,2.13c-1.78-.16-3.32-.25-4.79-.3a41.89,41.89,0,0,0-4.83.06,11.94,11.94,0,0,0-2.73.51,3.17,3.17,0,0,0-.89.44,1.78,1.78,0,0,0-.46,2.57,3.65,3.65,0,0,0,1,1,12,12,0,0,0,2.23,1.23,57.58,57.58,0,0,0,8,2.76l1,.28h0a12.46,12.46,0,0,0,.58,2.46,14.48,14.48,0,0,0,3.43,5.53,15.93,15.93,0,0,0,10.33,4.66c.41,0,.81.05,1.22.05a13.67,13.67,0,0,0,1.42-.08V261.7c-.11,0-.22,0-.34,0a14.08,14.08,0,0,1-3.39-.14,13.45,13.45,0,0,1-7.22-3.49,11.94,11.94,0,0,1-3-4.43,11.79,11.79,0,0,1-.49-1.58c4.81,1.17,9.64,2.12,14.46,2.89v-2.37c-4.95-.81-9.89-1.82-14.77-3a2.41,2.41,0,0,1,0-.38,12,12,0,0,1,2.08-6.51,13.48,13.48,0,0,1,6.65-5.15,13.09,13.09,0,0,1,2.48-.66,15.24,15.24,0,0,1,2.55-.22c.34,0,.67,0,1,.06v-2.37c-.24,0-.47,0-.7,0A17.56,17.56,0,0,0,296.59,234.54ZM284,245.22a14.2,14.2,0,0,0-.62,3.72c-.59-.16-1.17-.32-1.75-.5a49.44,49.44,0,0,1-6.23-2.21,11.53,11.53,0,0,1-1.71-.92,9.42,9.42,0,0,1,1.47-.25,37.72,37.72,0,0,1,4-.1C280.63,245,282.14,245.08,284,245.22Z" fill="#709999"/><path d="M283.68,96.75l.52.7.73.86.06-.06,0,0a3.87,3.87,0,0,1,1.82-.42h.33c3.66,0,8.15,1.5,13.41,4.46v-2.27q-8-4.31-13.87-4.18A5.25,5.25,0,0,0,283.68,96.75Z" fill="#709999"/><path d="M285.05,100.15,285,99.9a2.87,2.87,0,0,1,0-1.6l0,0-.06.06-.73-.86-.57-.67c-.72.62-.94,1.91-.59,3.54l0,.23c.46,2.25,1.85,9.09,14.75,21,.93.86,1.82,1.65,2.69,2.42v-2.68l-1.34-1.21C291,112.46,286.19,105.76,285.05,100.15Z" fill="#709999"/><polygon points="300.53 62.71 300.53 62.34 298.85 62.61 300.53 62.71" fill="#709999"/><polygon points="300.53 48.35 300.53 46.49 292.76 47.86 300.53 48.35" fill="#709999"/><polygon points="297.05 73.19 296.39 73.35 297.09 73.41 297.09 73.4 297.68 73.35 297.05 73.19" fill="#709999"/><path d="M297.48,68.43l-1,0-.28,3.91-5.94,1.46,6,.52.2,4.36,1,0,.51-4.41,2.54-.22V73l-2.59-.66Zm-.39,5-.7-.06.66-.16.63.16-.59.05Z" fill="#709999"/><path d="M68.19,196.67A14.81,14.81,0,1,0,83,211.48,14.83,14.83,0,0,0,68.19,196.67Zm0,27.62A12.81,12.81,0,1,1,81,211.48,12.82,12.82,0,0,1,68.19,224.29Z" fill="#709999"/><polygon points="217.86 229.21 217.73 228.02 217.57 229.24 216.85 229.31 217.66 229.41 217.94 230.69 218.03 229.42 219.01 229.22 217.86 229.21" fill="#709999"/><path d="M219,230.25l9.37-1.88-9.59-.15-.92-8.42-1.16,8.53-8.9.88,9.06,1.11,1.63,7.29Zm-1,.44-.28-1.28-.81-.1.72-.07.16-1.22.13,1.19H219l-1,.2Z" fill="#709999"/><polygon points="225.07 231.29 224.16 238.95 217.34 239.67 224.28 240.65 225.62 247.18 226 240.59 233.15 239.03 225.85 238.87 225.07 231.29" fill="#709999"/><polygon points="228.5 216.58 227.5 216.59 227.27 219.73 222.5 220.36 227.37 221.38 227.81 224.18 228.81 224.12 228.89 221.34 233.89 219.89 228.76 219.66 228.5 216.58" fill="#709999"/><polygon points="130.28 231.97 130.06 229.99 129.69 232 128.07 232.27 129.6 232.35 129.96 234.38 130.09 232.38 132.13 232.27 130.28 231.97" fill="#709999"/><path d="M131.19,231.11l-.89-8.05-1.46,8.07L119,232.74l9.74.57,1.65,9.28.63-9.26,10.47-.59ZM130,234.38l-.36-2-1.53-.08,1.62-.27.37-2,.22,2,1.85.29-2,.11Z" fill="#709999"/><polygon points="137.83 219.68 137.83 219.64 138.2 219.62 137.96 219.58 137.93 219.32 137.88 219.59 137.76 219.62 137.82 219.62 137.83 219.68" fill="#709999"/><path d="M138.27,228.78l.51-8.19,7.87-.5-7.77-1.37-.71-7.08-1.16,7.1-7.42,1.35,7.37.48Zm-.38-9.18,0-.28,0,.26.24,0-.37,0v0h-.06Z" fill="#709999"/><polygon points="142.37 241.85 142.25 241.88 142.38 241.89 142.5 241.88 142.37 241.85" fill="#709999"/><path d="M142.92,237.71l-1,0-.39,3.34-5.22,1.32,5.18.47.43,3.72,1,0,.17-3.67,5.53-.48L143.16,241Zm-.67,4.17.12,0,.13,0h-.25Z" fill="#709999"/><path d="M191.28,84.21c1.89,0,3.91.05,5.91-.06a25.7,25.7,0,0,0,3.7-.42A6.31,6.31,0,0,0,203,83a1.88,1.88,0,0,0,.38-3.22,6.41,6.41,0,0,0-1.58-1,24.22,24.22,0,0,0-3.68-1.4c-1.63-.5-3.33-1-5.16-1.36a13.35,13.35,0,0,0-.71-3.25,14.36,14.36,0,0,0-5-6.84,15.91,15.91,0,0,0-10.29-3.19,16.46,16.46,0,0,0-3.22.42,15.79,15.79,0,0,0-11.15,9c-1.78-.06-3.32-.07-4.8,0a43.47,43.47,0,0,0-4.82.34,11.36,11.36,0,0,0-2.7.66,3,3,0,0,0-.86.48,1.79,1.79,0,0,0-.32,2.6,3.68,3.68,0,0,0,1,.9,12.39,12.39,0,0,0,2.3,1.11,58.52,58.52,0,0,0,8.17,2.3l1,.22.06,0a12.86,12.86,0,0,0,.72,2.42,14.44,14.44,0,0,0,3.73,5.33,15.94,15.94,0,0,0,10.58,4.08H177A16.61,16.61,0,0,0,188.4,88,15.23,15.23,0,0,0,191.28,84.21Zm-29.52-9.7a14.34,14.34,0,0,0-.42,3.75l-1.77-.4A50.27,50.27,0,0,1,153.23,76a11,11,0,0,1-1.76-.82,8.76,8.76,0,0,1,1.45-.33,35.66,35.66,0,0,1,4-.32C158.36,74.47,159.87,74.47,161.76,74.51Zm30.54,7.36a14.5,14.5,0,0,0,.69-3.43c1.1.26,2.3.55,3.47.89a33.86,33.86,0,0,1,4,1.39,5.86,5.86,0,0,1,.87.47l-.51.14a16.79,16.79,0,0,1-2.28.35A53.11,53.11,0,0,1,192.3,81.87Zm-28.12-.61a186.35,186.35,0,0,0,24.4,2.87,14.11,14.11,0,0,1-9.77,6,14.38,14.38,0,0,1-3.4.05,13.6,13.6,0,0,1-7.4-3.09,11.81,11.81,0,0,1-3.83-5.8Zm-.48-2.89a12,12,0,0,1,1.72-6.6,13.48,13.48,0,0,1,6.35-5.52,14.06,14.06,0,0,1,2.45-.8,14.49,14.49,0,0,1,2.53-.35,13.93,13.93,0,0,1,6,1,12.76,12.76,0,0,1,3.83,2.33,11.86,11.86,0,0,1,3.51,5.31,11.45,11.45,0,0,1,.6,3.74,11.76,11.76,0,0,1-.53,3.42c-.1.33-.21.63-.33.93a179.91,179.91,0,0,1-26.09-3C163.71,78.63,163.71,78.5,163.7,78.37Z" fill="#709999"/><polygon points="247.11 116.42 246.84 114.87 246.73 116.39 245.21 116.48 246.56 116.69 246.73 118.26 247.02 116.67 248.17 116.48 247.11 116.42" fill="#709999"/><path d="M246.39,106.65l-.6,8.79-9.95.57,9.81,1.55.84,7.63,1.39-7.65,9.35-1.53-9.27-.54Zm.34,11.61-.17-1.57-1.35-.21,1.52-.09.11-1.52.27,1.55,1.06.06-1.15.19Z" fill="#709999"/><polygon points="239.17 119.28 238.69 127.14 231.15 127.61 238.6 128.92 239.27 135.7 240.38 128.91 247.49 127.61 240.43 127.15 239.17 119.28" fill="#709999"/><polygon points="234.88 111.47 235.88 111.49 236.23 108.46 241.22 107.19 236.26 106.75 235.88 103.36 234.88 103.4 234.73 106.73 229.44 107.19 234.67 108.47 234.88 111.47" fill="#709999"/></g></svg>