<svg width="32" height="32" viewBox="0 0 32 32" fill="none" xmlns="http://www.w3.org/2000/svg">
<g filter="url(#filter0_d)">
<circle cx="16" cy="15" r="15" fill="#30444E"/>
</g>
<g filter="url(#filter1_d)">
<path fill-rule="evenodd" clip-rule="evenodd" d="M16 27.2094C19.2381 27.2094 22.3436 25.923 24.6333 23.6334C26.923 21.3437 28.2093 18.2382 28.2093 15.0001C28.2093 11.762 26.923 8.65648 24.6333 6.36679C22.3436 4.07711 19.2381 2.79077 16 2.79077C12.7619 2.79077 9.65642 4.07711 7.36673 6.36679C5.07704 8.65648 3.79071 11.762 3.79071 15.0001C3.79071 18.2382 5.07704 21.3437 7.36673 23.6334C9.65642 25.923 12.7619 27.2094 16 27.2094ZM13.0695 9.06983C11.4126 9.06983 10.0695 10.413 10.0695 12.0698V17.9303C10.0695 19.5871 11.4126 20.9303 13.0695 20.9303H18.9299C20.5868 20.9303 21.9299 19.5872 21.9299 17.9303V12.0698C21.9299 10.413 20.5868 9.06983 18.9299 9.06983H13.0695Z" fill="#F97953"/>
</g>
<defs>
<filter id="filter0_d" x="0" y="0" width="32" height="32" filterUnits="userSpaceOnUse" color-interpolation-filters="sRGB">
<feFlood flood-opacity="0" result="BackgroundImageFix"/>
<feColorMatrix in="SourceAlpha" type="matrix" values="0 0 0 0 0 0 0 0 0 0 0 0 0 0 0 0 0 0 127 0"/>
<feOffset dy="1"/>
<feGaussianBlur stdDeviation="0.5"/>
<feColorMatrix type="matrix" values="0 0 0 0 0 0 0 0 0 0 0 0 0 0 0 0 0 0 0.25 0"/>
<feBlend mode="normal" in2="BackgroundImageFix" result="effect1_dropShadow"/>
<feBlend mode="normal" in="SourceGraphic" in2="effect1_dropShadow" result="shape"/>
</filter>
<filter id="filter1_d" x="2.79071" y="2.79077" width="26.4186" height="26.4186" filterUnits="userSpaceOnUse" color-interpolation-filters="sRGB">
<feFlood flood-opacity="0" result="BackgroundImageFix"/>
<feColorMatrix in="SourceAlpha" type="matrix" values="0 0 0 0 0 0 0 0 0 0 0 0 0 0 0 0 0 0 127 0"/>
<feOffset dy="1"/>
<feGaussianBlur stdDeviation="0.5"/>
<feColorMatrix type="matrix" values="0 0 0 0 0 0 0 0 0 0 0 0 0 0 0 0 0 0 0.25 0"/>
<feBlend mode="normal" in2="BackgroundImageFix" result="effect1_dropShadow"/>
<feBlend mode="normal" in="SourceGraphic" in2="effect1_dropShadow" result="shape"/>
</filter>
</defs>
</svg>
