<svg width="32" height="32" viewBox="0 0 32 32" fill="none" xmlns="http://www.w3.org/2000/svg">
<circle cx="16" cy="15" r="15" fill="#30444E"/>
<path class="inner-circle" d="M24.6333 23.6334C22.3436 25.923 19.2381 27.2094 16 27.2094C12.7619 27.2094 9.65642 25.923 7.36673 23.6334C5.07704 21.3437 3.79071 18.2382 3.79071 15.0001C3.79071 11.762 5.07704 8.65648 7.36673 6.36679C9.65642 4.07711 12.7619 2.79077 16 2.79077C19.2381 2.79077 22.3436 4.07711 24.6333 6.36679C26.923 8.65648 28.2093 11.762 28.2093 15.0001C28.2093 18.2382 26.923 21.3437 24.6333 23.6334Z" fill="#F97953"/>
<rect x="10" y="9" width="11.8605" height="11.8605" rx="3" fill="#30444E"/>
</svg>
